<?xml version="1.0" standalone="no"?>
<!DOCTYPE svg PUBLIC "-//W3C//DTD SVG 20010904//EN"
 "http://www.w3.org/TR/2001/REC-SVG-20010904/DTD/svg10.dtd">
<svg version="1.0" xmlns="http://www.w3.org/2000/svg"
 width="936.000000pt" height="483.000000pt" viewBox="0 0 936.000000 483.000000"
 preserveAspectRatio="xMidYMid meet">
<metadata>
Created by potrace 1.13, written by Peter Selinger 2001-2015
</metadata>
<g transform="translate(0.000000,483.000000) scale(0.100000,-0.100000)"
fill="#000000" stroke="none">
<path d="M2388 4077 c-1241 -309 -2259 -564 -2262 -567 -3 -3 5 -46 18 -95 16
-65 27 -90 38 -89 8 1 1025 252 2259 558 l2244 556 2235 -555 c1229 -306 2244
-557 2254 -558 16 -2 23 12 42 88 13 50 20 93 16 96 -13 12 -4524 1129 -4555
1128 -18 -1 -1048 -254 -2289 -562z"/>
<path d="M740 2684 c-194 -322 -366 -601 -382 -620 -43 -48 -78 -64 -159 -71
l-69 -6 0 -38 0 -39 330 0 330 0 0 39 0 38 -84 5 c-92 5 -136 24 -136 59 0 12
42 95 93 185 l92 163 401 1 400 0 87 -159 c47 -88 89 -171 93 -185 9 -39 -31
-59 -132 -64 l-84 -5 0 -38 0 -39 390 0 390 0 0 40 0 40 -43 0 c-78 0 -143 26
-182 73 -20 24 -190 304 -378 623 l-343 579 -131 3 -132 3 -351 -587z m585
113 c86 -153 155 -280 152 -283 -2 -2 -150 -3 -329 -2 l-325 3 165 288 c91
158 169 284 172 280 4 -4 78 -133 165 -286z"/>
<path d="M2460 3231 l0 -38 103 -5 c112 -5 154 -19 174 -58 18 -36 18 -1034 0
-1070 -20 -41 -78 -62 -183 -68 l-94 -5 0 -38 0 -39 385 0 385 0 0 39 0 38
-94 5 c-120 6 -166 27 -184 82 -9 29 -12 156 -10 533 l3 495 355 -596 355
-595 80 0 80 0 350 600 350 600 3 -518 c1 -285 0 -527 -2 -538 -10 -38 -62
-58 -168 -63 l-98 -5 0 -38 0 -39 420 0 420 0 0 40 0 40 -72 0 c-98 1 -148 14
-175 45 l-23 26 0 529 0 529 23 26 c27 31 77 44 175 45 l72 0 0 40 0 40 -337
-2 -337 -3 -310 -533 c-243 -417 -313 -530 -322 -520 -6 7 -152 248 -323 536
l-312 522 -345 0 -344 0 0 -39z"/>
<path d="M5390 3231 l0 -38 103 -5 c123 -6 153 -18 167 -67 14 -50 13 -1004
-1 -1053 -14 -54 -51 -70 -171 -76 l-98 -5 0 -38 0 -39 425 0 425 0 0 40 0 40
-82 0 c-104 0 -153 13 -175 47 -15 23 -18 59 -22 235 l-3 208 288 0 c296 0
456 10 579 35 156 33 323 145 372 250 32 69 32 161 -1 230 -68 145 -280 242
-583 264 -76 6 -382 11 -680 11 l-543 0 0 -39z m1142 -81 c220 -21 346 -110
356 -250 6 -82 -16 -136 -79 -195 -100 -94 -158 -106 -541 -112 l-308 -5 0
286 0 286 238 0 c130 0 281 -5 334 -10z"/>
<path d="M7390 3231 l0 -39 98 -4 c108 -4 145 -19 162 -64 15 -37 13 -1046 -1
-1077 -17 -37 -54 -50 -161 -55 l-98 -4 0 -39 0 -39 783 0 783 0 117 203 c64
112 117 209 117 214 0 6 -29 16 -65 23 l-64 12 -28 -33 c-90 -113 -203 -194
-333 -240 -144 -51 -233 -63 -482 -63 -205 -1 -229 1 -245 17 -17 17 -18 52
-18 545 0 599 -4 570 79 591 25 6 79 11 120 11 l76 0 0 40 0 40 -420 0 -420 0
0 -39z"/>
<path d="M4815 1697 c-108 -36 -187 -105 -220 -190 -26 -69 -18 -189 18 -249
53 -90 106 -123 320 -199 160 -57 213 -85 251 -129 118 -141 -24 -357 -221
-337 -120 12 -234 106 -302 247 -22 45 -41 86 -43 92 -2 6 -15 5 -34 -4 l-31
-13 31 -190 c31 -188 31 -190 57 -193 23 -3 28 2 39 43 7 25 17 48 22 51 5 3
25 -9 45 -27 21 -17 62 -44 93 -58 48 -23 67 -26 155 -25 80 0 110 5 148 22
62 28 143 104 175 167 24 44 27 61 27 150 0 84 -4 107 -22 141 -46 87 -130
140 -338 214 -146 52 -202 79 -237 117 -121 127 -1 321 185 300 105 -13 211
-103 282 -238 21 -41 39 -75 40 -77 1 -1 16 3 34 9 22 8 30 16 27 28 -3 9 -19
89 -38 179 -32 160 -33 162 -59 162 -20 0 -30 -7 -39 -30 -7 -17 -15 -29 -19
-27 -102 55 -146 69 -224 73 -52 3 -97 -1 -122 -9z"/>
<path d="M8567 1699 c-108 -25 -233 -130 -300 -250 -55 -98 -79 -201 -79 -339
-1 -76 5 -137 16 -180 50 -198 190 -359 351 -405 111 -32 267 -4 373 66 24 16
46 29 50 29 5 0 15 -19 23 -43 14 -38 19 -42 52 -45 l37 -3 0 240 c0 228 1
242 20 261 13 13 33 20 60 20 39 0 40 1 40 35 l0 35 -200 0 -200 0 0 -35 c0
-34 1 -35 38 -35 91 -1 116 -48 110 -207 -5 -118 -20 -149 -97 -201 -198 -134
-437 10 -507 304 -21 89 -21 268 1 349 55 213 199 348 352 332 123 -13 217
-111 288 -299 10 -27 19 -48 21 -48 2 0 15 5 30 12 31 15 31 13 -16 241 l-33
157 -28 0 c-22 0 -29 -5 -34 -30 -4 -16 -9 -30 -12 -30 -2 0 -24 12 -49 26
-83 49 -208 66 -307 43z"/>
<path d="M130 1655 c0 -34 1 -35 39 -35 23 0 48 -8 62 -19 l24 -19 0 -472 0
-472 -24 -19 c-14 -11 -39 -19 -62 -19 -38 0 -39 -1 -39 -35 l0 -35 190 0 190
0 0 35 c0 34 -1 35 -40 35 -27 0 -47 7 -60 20 -19 19 -20 33 -20 209 l0 189
163 5 c94 3 178 10 201 18 56 19 131 91 162 156 21 43 29 75 32 138 6 112 -14
177 -74 244 -89 99 -142 111 -496 111 l-248 0 0 -35z m519 -66 c64 -14 100
-45 128 -107 22 -48 25 -64 21 -142 -3 -76 -8 -95 -34 -136 -45 -74 -82 -88
-241 -92 l-133 -4 0 246 0 246 108 0 c59 0 127 -5 151 -11z"/>
<path d="M1010 1655 c0 -34 1 -35 39 -35 23 0 48 -8 62 -19 l24 -19 5 -394 c5
-356 7 -397 24 -438 42 -99 103 -161 204 -208 49 -23 70 -27 152 -27 81 0 103
4 152 27 71 33 137 93 171 156 51 93 57 147 57 508 0 219 4 342 11 363 12 33
41 51 85 51 21 0 24 5 24 35 l0 35 -165 0 -165 0 0 -35 c0 -32 2 -35 30 -35
51 0 79 -20 91 -64 7 -27 10 -148 7 -366 -6 -369 -11 -401 -78 -474 -59 -64
-120 -91 -205 -91 -81 1 -129 21 -187 82 -70 72 -72 85 -76 487 -2 255 0 367
8 386 12 29 34 40 83 40 24 0 27 4 27 35 l0 35 -190 0 -190 0 0 -35z"/>
<path d="M2130 1655 c0 -34 1 -35 40 -35 27 0 47 -7 60 -20 20 -20 21 -30 18
-491 l-3 -471 -24 -19 c-13 -10 -38 -19 -57 -19 -32 0 -34 -2 -34 -35 l0 -35
288 0 c158 0 317 5 355 10 83 12 150 43 199 92 60 60 81 111 86 210 4 76 1 92
-20 140 -14 29 -38 66 -54 82 -29 29 -116 75 -144 76 -8 1 3 10 25 22 104 53
156 136 156 248 1 148 -86 244 -242 270 -35 5 -196 10 -356 10 l-293 0 0 -35z
m609 -66 c123 -26 177 -170 111 -299 -43 -84 -121 -110 -336 -110 l-134 0 0
210 0 210 155 0 c84 0 176 -5 204 -11z m-2 -512 c36 -8 76 -25 97 -41 126 -96
102 -318 -41 -387 -42 -20 -66 -23 -213 -27 -146 -4 -168 -2 -183 12 -15 15
-17 44 -17 237 l0 219 148 0 c81 0 175 -6 209 -13z"/>
<path d="M3200 1655 c0 -34 1 -35 39 -35 46 0 68 -18 76 -63 3 -18 5 -232 3
-475 l-3 -444 -24 -19 c-13 -10 -38 -19 -57 -19 -32 0 -34 -2 -34 -35 l0 -35
349 0 348 0 52 173 c28 94 51 177 51 183 0 10 -50 39 -54 32 -1 -2 -19 -37
-39 -79 -72 -150 -162 -209 -329 -217 -70 -3 -102 -1 -113 8 -13 11 -15 74
-15 477 l0 464 25 24 c16 17 35 25 60 25 33 0 35 2 35 35 l0 35 -185 0 -185 0
0 -35z"/>
<path d="M4050 1655 c0 -33 2 -35 34 -35 19 0 44 -9 57 -19 l24 -19 0 -472 0
-472 -24 -19 c-13 -10 -38 -19 -57 -19 -32 0 -34 -2 -34 -35 l0 -35 185 0 185
0 0 35 c0 33 -2 35 -35 35 -25 0 -44 8 -60 25 l-25 24 0 461 0 461 25 24 c16
17 35 25 60 25 33 0 35 2 35 35 l0 35 -185 0 -185 0 0 -35z"/>
<path d="M5490 1655 c0 -34 1 -35 39 -35 31 0 44 -6 61 -27 20 -26 21 -32 18
-496 -3 -451 -4 -469 -22 -483 -11 -8 -37 -14 -58 -14 -37 0 -38 -1 -38 -35
l0 -35 185 0 185 0 0 35 c0 34 -1 35 -40 35 -27 0 -47 7 -60 20 -19 19 -20 33
-20 240 l0 220 250 0 250 0 0 -230 c0 -259 3 -250 -79 -250 -40 0 -41 -1 -41
-35 l0 -35 190 0 190 0 0 35 c0 35 0 35 -43 35 -81 0 -77 -26 -77 508 0 459 1
473 20 492 13 13 33 20 60 20 39 0 40 1 40 35 l0 35 -190 0 -190 0 0 -35 c0
-34 1 -35 40 -35 27 0 47 -7 60 -20 19 -19 20 -33 20 -225 l0 -205 -250 0
-250 0 0 200 c0 200 0 201 25 225 16 17 35 25 60 25 33 0 35 2 35 35 l0 35
-185 0 -185 0 0 -35z"/>
<path d="M6620 1655 c0 -33 2 -35 34 -35 19 0 44 -9 57 -19 l24 -19 0 -472 0
-472 -24 -19 c-13 -10 -38 -19 -57 -19 -32 0 -34 -2 -34 -35 l0 -35 185 0 185
0 0 35 c0 33 -2 35 -35 35 -25 0 -44 8 -60 25 l-25 24 0 461 0 461 25 24 c16
17 35 25 60 25 33 0 35 2 35 35 l0 35 -185 0 -185 0 0 -35z"/>
<path d="M7110 1655 c0 -34 1 -35 38 -35 21 0 48 -7 60 -16 l22 -15 0 -470 0
-470 -25 -24 c-16 -17 -35 -25 -60 -25 -33 0 -35 -2 -35 -35 l0 -35 165 0 165
0 0 34 c0 32 -2 34 -42 39 -81 11 -78 -11 -78 506 l0 456 36 -65 c19 -36 139
-269 266 -517 l231 -453 43 0 44 0 0 510 c0 429 2 516 15 539 16 32 33 41 76
41 27 0 29 3 29 35 l0 35 -165 0 -165 0 0 -35 c0 -33 2 -35 35 -35 25 0 44 -8
60 -25 l25 -24 0 -368 0 -368 -53 100 c-30 55 -129 247 -221 428 l-167 327
-150 0 -149 0 0 -35z"/>
<path d="M130 280 l0 -100 4540 0 4540 0 0 100 0 100 -4540 0 -4540 0 0 -100z"/>
</g>
</svg>
