<?xml version="1.0" encoding="utf-8"?>
<!-- Generator: Adobe Illustrator 19.0.0, SVG Export Plug-In . SVG Version: 6.00 Build 0)  -->
<svg version="1.1" id="Layer_1" xmlns="http://www.w3.org/2000/svg" xmlns:xlink="http://www.w3.org/1999/xlink" x="0px" y="0px"
	 viewBox="0 0 259.1 141.1" style="enable-background:new 0 0 259.1 141.1;" xml:space="preserve">
<g id="XMLID_30_">
	<path id="XMLID_31_" d="M66.5,50.9h8l10.7,25.2c0.6,1.3,1.1,2.2,1.5,2.5c0.5,0.3,1.3,0.5,2.5,0.4v4.5H72.4v-4.5l1,0
		c0.9,0,1.6-0.1,2-0.3c0.4-0.2,0.6-0.5,0.6-0.8c0-0.3-0.2-0.9-0.5-1.7l-1.1-3H63.6l-1.3,3.3c-0.3,0.7-0.4,1.2-0.4,1.4
		c0,0.3,0.1,0.5,0.3,0.7s0.5,0.4,1,0.4c0.3,0.1,1.1,0.1,2.4,0.1v4.5H51.7v-4.5c0.9,0,1.5-0.1,1.9-0.2c0.4-0.1,0.7-0.4,1-0.6
		s0.6-0.8,0.9-1.6L66.5,50.9z M65.5,68.5h7.1l-3.4-9L65.5,68.5z"/>
	<path id="XMLID_34_" d="M91.3,50.9h16.1l6.2,19.9l6.4-19.9h16.4v4.5h-1.8c-1,0-1.6,0.2-2,0.6s-0.5,1.1-0.5,2.1v18.6
		c0,0.8,0.1,1.3,0.2,1.5c0.2,0.3,0.4,0.5,0.6,0.7c0.4,0.2,0.9,0.3,1.5,0.3h2v4.5h-17.1v-4.5h1.3c1,0,1.6-0.1,2-0.2
		c0.3-0.1,0.6-0.4,0.8-0.6s0.2-0.8,0.2-1.6V56.5l-8.7,27.1H110l-8.4-26.2v19.9c0,0.5,0.1,0.8,0.3,1.1c0.2,0.3,0.4,0.4,0.8,0.6
		s0.9,0.2,1.6,0.2h1.7v4.5H91.3v-4.5h1.4c0.9,0,1.5-0.1,1.9-0.2c0.3-0.1,0.6-0.4,0.7-0.7c0.2-0.3,0.2-0.9,0.2-1.8V58
		c0-0.8-0.1-1.4-0.2-1.6c-0.2-0.3-0.4-0.6-0.7-0.8c-0.3-0.2-0.8-0.2-1.5-0.2h-2V50.9z"/>
	<path id="XMLID_36_" d="M140.5,50.9h18.8c2.4,0,4.4,0.2,5.9,0.7s2.9,1.1,4.1,2s2,2,2.6,3.2c0.6,1.2,0.9,2.6,0.9,3.9
		c0,2.8-1.2,5.1-3.5,7s-5.6,2.8-9.7,2.8h-6.1v6.1c0,0.8,0.1,1.3,0.2,1.5c0.2,0.3,0.4,0.5,0.7,0.7s0.8,0.2,1.6,0.2h1.8v4.5h-17.4
		v-4.5h1.2c1.1,0,1.8-0.1,2.1-0.2c0.3-0.1,0.6-0.4,0.7-0.7c0.2-0.3,0.2-0.9,0.2-1.9v-18c0-1-0.1-1.7-0.2-2c-0.1-0.3-0.4-0.6-0.7-0.7
		c-0.3-0.1-0.9-0.2-1.7-0.2h-1.7V50.9z M153.6,56.2v9.3h3c1.9,0,3.2-0.2,4.1-0.5s1.6-0.9,2.1-1.6c0.5-0.7,0.8-1.6,0.8-2.6
		c0-1.5-0.6-2.7-1.9-3.6c-0.9-0.7-2.3-1-4.2-1H153.6z"/>
	<path id="XMLID_39_" d="M175.1,50.9h17.4v4.5H191c-0.8,0-1.4,0-1.6,0.1c-0.4,0.2-0.7,0.4-0.9,0.7s-0.3,0.8-0.3,1.5v18.7
		c0,0.8,0,1.2,0.1,1.4s0.2,0.3,0.5,0.4c0.2,0.1,0.7,0.2,1.4,0.2c2.3,0,4.1-0.3,5.5-0.8s2.6-1.4,3.8-2.6s2.1-2.9,2.9-4.9l4.7,1.5
		l-4.7,12.1h-27.2v-4.5h1.7c0.7,0,1.2-0.1,1.6-0.3s0.6-0.4,0.8-0.7c0.2-0.3,0.2-0.8,0.2-1.5V58.1c0-0.8-0.1-1.3-0.2-1.7
		c-0.2-0.3-0.4-0.6-0.7-0.8c-0.3-0.2-0.8-0.2-1.5-0.2h-1.9V50.9z"/>
</g>
<g id="XMLID_6_">
	<path id="XMLID_7_" d="M6.5,89.3h13.6c1.7,0,3.2,0.2,4.3,0.7s2.1,1.1,2.9,2c0.8,0.9,1.4,2,1.9,3.2c0.4,1.2,0.7,2.6,0.7,3.9
		c0,2.8-0.8,5.1-2.5,7c-1.7,1.9-4,2.8-7,2.8H16v6.1c0,0.8,0,1.3,0.1,1.5c0.1,0.3,0.3,0.5,0.5,0.7c0.2,0.1,0.6,0.2,1.2,0.2h1.3v4.5
		H6.5v-4.5h0.9c0.8,0,1.3-0.1,1.5-0.2c0.2-0.1,0.4-0.4,0.5-0.7s0.2-0.9,0.2-1.9v-18c0-1,0-1.7-0.1-2S9.2,94.2,9,94
		c-0.2-0.1-0.6-0.2-1.2-0.2H6.5V89.3z M16,94.6v9.3h2.2c1.3,0,2.3-0.2,3-0.5s1.1-0.9,1.5-1.6c0.4-0.7,0.6-1.6,0.6-2.6
		c0-1.5-0.5-2.7-1.4-3.6c-0.7-0.7-1.7-1-3-1H16z"/>
	<path id="XMLID_10_" d="M30.7,89.3h12.6v4.5H42c-0.6,0-1,0.1-1.2,0.3s-0.4,0.4-0.5,0.7s-0.2,1-0.2,2v11.9c0,2.2,0.2,3.9,0.5,5
		c0.4,1.1,0.9,1.9,1.6,2.5c0.7,0.6,1.6,0.9,2.6,0.9c1,0,1.9-0.3,2.7-0.9c0.8-0.6,1.4-1.4,1.7-2.4s0.5-2.6,0.5-4.8V95.8
		c0-0.5-0.1-0.9-0.2-1.2c-0.1-0.3-0.3-0.5-0.6-0.7c-0.2-0.1-0.6-0.1-1.3-0.1h-1v-4.5h10.6v4.5h-0.8c-0.8,0-1.3,0.1-1.5,0.2
		c-0.3,0.2-0.5,0.5-0.6,0.8c-0.1,0.2-0.1,0.9-0.1,1.9v12.9c0,2.4-0.3,4.4-0.8,6c-0.8,2.2-1.9,3.9-3.6,5.1c-1.6,1.2-3.6,1.8-5.8,1.8
		c-1.6,0-3-0.3-4.3-0.9c-1.3-0.6-2.4-1.5-3.3-2.6s-1.6-2.4-2-3.6s-0.6-3.2-0.6-5.7V97c0-1.2,0-1.9-0.1-2.2c-0.1-0.3-0.3-0.6-0.5-0.7
		c-0.2-0.2-0.7-0.2-1.3-0.2h-1.2V89.3z"/>
	<path id="XMLID_12_" d="M59.4,93.8v-4.5H74c2.2,0,4,0.3,5.3,1c1.3,0.7,2.3,1.6,2.9,2.9s1,2.6,1,4.1c0,1.1-0.2,2.1-0.5,3.1
		s-0.9,1.8-1.6,2.6c-0.7,0.7-1.6,1.4-2.7,1.8c1.2,0.4,2.1,0.8,2.8,1.3c0.9,0.7,1.7,1.6,2.2,2.8s0.8,2.5,0.8,3.9
		c0,1.7-0.4,3.3-1.2,4.8c-0.8,1.5-2,2.6-3.5,3.3s-3.7,1.1-6.6,1.1H59.4v-4.5h1c0.7,0,1.1-0.1,1.4-0.2s0.4-0.4,0.5-0.6
		c0.1-0.3,0.1-0.9,0.1-1.8V96.5c0-1,0-1.6-0.1-1.9c-0.1-0.3-0.3-0.5-0.5-0.6s-0.7-0.2-1.4-0.2H59.4z M68.8,102.5h2.8
		c1.5,0,2.6-0.2,3.3-0.5s1.2-0.8,1.6-1.4s0.5-1.4,0.5-2.2c0-0.9-0.2-1.6-0.5-2.2c-0.3-0.6-0.8-1-1.5-1.3s-1.8-0.4-3.4-0.4h-2.8
		V102.5z M68.8,107.3v7.1c0,1,0,1.6,0.1,1.8c0.1,0.2,0.2,0.4,0.3,0.5s0.5,0.1,1.2,0.1h1.9c1.1,0,2-0.1,2.7-0.4
		c0.7-0.3,1.3-0.8,1.8-1.6c0.5-0.8,0.8-1.8,0.8-2.9c0-1-0.2-1.8-0.5-2.5c-0.4-0.7-0.9-1.2-1.6-1.5c-0.7-0.3-1.8-0.5-3.3-0.5H68.8z"
		/>
	<path id="XMLID_16_" d="M86.6,89.3h12.6v4.5h-1.1c-0.6,0-1,0-1.2,0.1c-0.3,0.2-0.5,0.4-0.6,0.7s-0.2,0.8-0.2,1.5v18.7
		c0,0.8,0,1.2,0.1,1.4s0.2,0.3,0.3,0.4c0.2,0.1,0.5,0.2,1,0.2c1.6,0,3-0.3,4-0.8s1.9-1.4,2.7-2.6s1.5-2.9,2.1-4.9l3.4,1.5l-3.4,12.1
		H86.6v-4.5h1.2c0.5,0,0.9-0.1,1.1-0.3c0.3-0.2,0.4-0.4,0.6-0.7s0.2-0.8,0.2-1.5V96.5c0-0.8-0.1-1.3-0.2-1.7s-0.3-0.6-0.5-0.8
		s-0.6-0.2-1.1-0.2h-1.4V89.3z"/>
	<path id="XMLID_18_" d="M110.6,89.3h12.6v4.5H122c-0.7,0-1.1,0.1-1.3,0.2s-0.4,0.4-0.5,0.7s-0.2,0.9-0.2,1.8v18.1
		c0,1,0,1.6,0.1,1.9c0.1,0.3,0.2,0.5,0.4,0.6c0.3,0.2,0.6,0.3,1.2,0.3h1.4v4.5h-12.6v-4.5h1c0.7,0,1.2-0.1,1.4-0.2s0.4-0.3,0.5-0.6
		c0.1-0.3,0.2-0.9,0.2-1.7V96.7c0-1-0.1-1.7-0.2-2c-0.1-0.3-0.3-0.6-0.5-0.7c-0.2-0.1-0.6-0.2-1.3-0.2h-1.2V89.3z"/>
	<path id="XMLID_20_" d="M145.2,89.3l2.2,11l-3.4,1.2c-1.1-2.6-2.4-4.5-3.9-5.7c-1.4-1.2-3-1.8-4.6-1.8c-1.1,0-1.9,0.3-2.5,0.8
		c-0.6,0.5-0.9,1.2-0.9,1.8c0,0.8,0.3,1.5,0.8,2.1c0.5,0.7,1.5,1.2,3,1.8l4.9,1.8c2.7,1,4.7,2.3,5.9,4c1.2,1.7,1.7,3.6,1.7,5.8
		c0,2.8-0.9,5.2-2.7,7.2c-2,2.2-4.4,3.2-7.4,3.2c-1.4,0-2.6-0.2-3.8-0.7s-2.3-1.2-3.6-2.2l-0.8,2.3h-2.7l-1.8-12.7l3.4-1.1
		c0.8,2.6,2.1,4.7,3.8,6.5s3.6,2.6,5.7,2.6c0.9,0,1.7-0.1,2.3-0.4c0.6-0.3,1.1-0.7,1.4-1.2c0.3-0.5,0.5-1.1,0.5-1.6
		c0-0.9-0.4-1.7-1.1-2.4c-0.7-0.7-2-1.3-3.8-2l-4.3-1.6c-0.7-0.2-1.5-0.7-2.6-1.3c-1.1-0.6-2-1.3-2.6-2c-0.6-0.7-1.1-1.6-1.5-2.7
		c-0.4-1.1-0.6-2.3-0.6-3.5c0-1.7,0.4-3.3,1.1-4.8c0.8-1.5,1.9-2.6,3.4-3.6c1.5-0.9,3.2-1.4,5-1.4c2.2,0,4.2,0.7,6,2.2l0.7-1.6
		H145.2z"/>
	<path id="XMLID_22_" d="M150.7,89.3h12.6v4.5h-1.2c-0.6,0-1.1,0.1-1.3,0.2c-0.2,0.2-0.4,0.4-0.5,0.7c-0.1,0.3-0.1,1-0.1,2v5.7h9.4
		v-6.1c0-0.8,0-1.3-0.1-1.5c-0.1-0.4-0.3-0.6-0.5-0.8s-0.8-0.2-1.5-0.2h-1v-4.5h12.6v4.5h-1.1c-0.7,0-1.2,0.1-1.4,0.2
		c-0.2,0.1-0.4,0.4-0.5,0.7c-0.1,0.3-0.1,1-0.1,2.1v17.7c0,1.1,0.1,1.8,0.2,2.1c0.1,0.3,0.3,0.5,0.5,0.7c0.2,0.1,0.8,0.2,1.7,0.2
		h0.7v4.5h-12.6v-4.5h0.8c0.8,0,1.3-0.1,1.6-0.2c0.3-0.2,0.5-0.4,0.6-0.7s0.2-1,0.2-2.1v-6.9h-9.4v6.9c0,1.1,0,1.8,0.1,2
		c0.1,0.4,0.3,0.6,0.6,0.8c0.3,0.1,0.8,0.2,1.6,0.2h0.9v4.5h-12.6v-4.5h0.9c0.7,0,1.2-0.1,1.5-0.2c0.3-0.2,0.5-0.4,0.6-0.7
		c0.1-0.3,0.2-0.9,0.2-1.9V96.9c0-1.1-0.1-1.8-0.2-2.2c-0.1-0.3-0.3-0.6-0.5-0.7s-0.7-0.2-1.3-0.2h-1.2V89.3z"/>
	<path id="XMLID_24_" d="M181.6,89.3h12.6v4.5H193c-0.7,0-1.1,0.1-1.3,0.2s-0.4,0.4-0.5,0.7s-0.2,0.9-0.2,1.8v18.1
		c0,1,0,1.6,0.1,1.9s0.2,0.5,0.4,0.6c0.3,0.2,0.6,0.3,1.2,0.3h1.4v4.5h-12.6v-4.5h1c0.7,0,1.2-0.1,1.4-0.2c0.2-0.1,0.4-0.3,0.5-0.6
		s0.2-0.9,0.2-1.7V96.7c0-1-0.1-1.7-0.2-2s-0.3-0.6-0.5-0.7c-0.2-0.1-0.6-0.2-1.3-0.2h-1.2V89.3z"/>
	<path id="XMLID_26_" d="M196.9,89.3h10.4l7.5,19.1V96.7c0-1,0-1.6-0.1-1.9c-0.1-0.4-0.3-0.6-0.5-0.8s-0.6-0.2-1.2-0.2h-1.3v-4.5
		h10.6v4.5h-1.2c-0.6,0-1,0.1-1.3,0.3c-0.3,0.2-0.4,0.4-0.5,0.7c-0.1,0.3-0.1,0.9-0.1,1.9V122h-5.3l-9.6-24.1v16.9
		c0,1,0,1.6,0.1,1.9s0.3,0.5,0.5,0.6s0.7,0.2,1.2,0.2h1.2v4.5h-10.6v-4.5h1.1c0.6,0,1-0.1,1.3-0.2c0.2-0.1,0.4-0.4,0.5-0.7
		c0.1-0.3,0.2-0.8,0.2-1.5V96.3c0-0.7-0.1-1.2-0.2-1.6s-0.3-0.6-0.5-0.7s-0.6-0.2-1-0.2h-1.4V89.3z"/>
	<path id="XMLID_28_" d="M239.9,104.5h12.6v4.6h-0.9c-0.6,0-1,0.1-1.3,0.2c-0.2,0.1-0.4,0.4-0.5,0.7c-0.1,0.3-0.2,0.9-0.2,1.7V122
		h-3.8l-1-2.3c-1.2,1-2.4,1.7-3.6,2.2c-1.2,0.5-2.5,0.7-3.9,0.7c-2.3,0-4.5-0.7-6.4-2.2s-3.5-3.5-4.6-6.1s-1.7-5.5-1.7-8.8
		c0-3.2,0.6-6.1,1.7-8.6s2.7-4.5,4.7-6s4.2-2.2,6.5-2.2c1.1,0,2.3,0.2,3.4,0.6s2.1,0.9,2.9,1.5l0.7-1.5h2.6l2.3,10.8l-3.4,1.4
		c-1.2-2.4-2.1-4-2.7-4.9c-0.7-0.9-1.4-1.5-2.3-2c-0.9-0.5-1.7-0.7-2.5-0.7c-1.2,0-2.3,0.4-3.3,1.3c-1,0.9-1.8,2.1-2.4,3.8
		s-0.9,3.6-0.9,6c0,2.6,0.3,4.8,1,6.7s1.5,3.3,2.5,4.2s2.2,1.4,3.4,1.4c0.9,0,1.7-0.2,2.5-0.7s1.3-1,1.6-1.5s0.4-1.3,0.4-2.3v-1.2
		c0-0.8,0-1.4-0.1-1.6c-0.1-0.3-0.3-0.5-0.5-0.7s-0.7-0.2-1.3-0.2h-1.5V104.5z"/>
</g>
<path id="XMLID_3_" d="M251.3,126.4H7.4c-4.1,0-7.4,3.3-7.4,7.4v0c0,4.1,3.3,7.4,7.4,7.4h243.9c4.1,0,7.4-3.3,7.4-7.4v0
	C258.7,129.7,255.3,126.4,251.3,126.4z"/>
<path id="XMLID_4_" d="M125.8,0.7L2.8,58c-3.7,1.7-5.3,6.1-3.6,9.8l0,0c1.7,3.7,6.1,5.3,9.8,3.6L132,14.1c3.7-1.7,5.3-6.1,3.6-9.8
	l0,0C133.8,0.6,129.4-1,125.8,0.7z"/>
<path id="XMLID_5_" d="M254.8,58L133,1.2c-3.7-1.7-8.1-0.1-9.8,3.6l0,0c-1.7,3.7-0.1,8.1,3.6,9.8l121.9,56.8
	c3.7,1.7,8.1,0.1,9.8-3.6v0C260.1,64.1,258.5,59.7,254.8,58z"/>
</svg>
