<?xml version="1.0" encoding="utf-8"?>
<!-- Generator: Adobe Illustrator 19.0.0, SVG Export Plug-In . SVG Version: 6.00 Build 0)  -->
<svg version="1.1" xmlns="http://www.w3.org/2000/svg" xmlns:xlink="http://www.w3.org/1999/xlink" x="0px" y="0px"
	 viewBox="0 0 337.4 356.4" style="enable-background:new 0 0 337.4 356.4;" xml:space="preserve">
<style type="text/css">
	.st0{opacity:0.2;}
	.st1{fill:#85B916;}
	.st2{fill:#FFFFFF;}
</style>
<g id="Layer_1">
	<polygon id="XMLID_3_" class="st0" points="336.4,61.4 276.4,61.4 276.4,0 	"/>
	<polygon id="XMLID_5_" class="st0" points="336.4,60.4 276.4,60.4 276.4,0 	"/>
	<path id="XMLID_15_" class="st1" d="M276.9-0.6H78.4v357h259V59.2L276.9-0.6z"/>
	<polygon id="XMLID_6_" class="st0" points="337.1,60.4 277.4,60.4 277.4,0 	"/>
	<g id="XMLID_1_">
		<path id="XMLID_25_" class="st2" d="M134.1,329.4c5,0,8.5-2,11.4-4.9l3.4,2.9c-3.6,3.9-8.1,6.6-14.9,6.6c-10,0-18.1-7.4-18.1-18.3
			c0-10.1,7.4-18.3,17.4-18.3c10.7,0,16.9,8.3,16.9,18.5c0,0.5,0,1-0.1,1.6h-28.8C122.1,325.2,127.7,329.4,134.1,329.4z
			 M144.7,313.7c-0.6-6.4-4.4-11.9-11.6-11.9c-6.3,0-11.1,5.1-11.8,11.9H144.7z"/>
		<path id="XMLID_18_" class="st2" d="M178.1,316.4h-11.9v16.7h-5.5v-47.3H179c11.1,0,18.4,5.7,18.4,15.1
			C197.4,311.2,188.5,316.4,178.1,316.4z M178.6,290.7h-12.4v20.8h12.2c8.1,0,13.5-4.2,13.5-10.5
			C191.7,294.3,186.5,290.7,178.6,290.7z M247.6,312.9c0,13.8-8.2,21-20.5,21c-12.1,0-20.4-7.2-20.4-20.6v-27.5h5.5V313
			c0,10.2,5.6,16,15,16c9.1,0,14.8-5.3,14.8-15.6v-27.5h5.5V312.9z M297.1,297.6c0,6.2-3.9,9.4-7.8,11c5.8,1.7,10.5,4.9,10.5,11.5
			c0,8.2-7.1,13-17.8,13h-22.2v-47.3h21.3C290.8,285.8,297.1,290.4,297.1,297.6z M291.5,298.4c0-4.7-3.9-7.8-10.9-7.8h-15.3v16.3
			h14.9C286.9,306.9,291.5,304,291.5,298.4z M294.3,319.8c0-5.2-4.5-8.2-13.1-8.2h-15.9v16.7h16.9
			C289.6,328.3,294.3,325.2,294.3,319.8z"/>
	</g>
	<path id="XMLID_16_" class="st2" d="M207.8,226l-65.4-62.4l65.4-62.4l21.8,20.8L186,163.7l21.8,20.8l65.4-62.4l-57-54.3
		c-4.6-4.4-12.2-4.4-16.9,0l-92.1,87.9c-4.7,4.4-4.7,11.6,0,16.1l92.1,87.9c4.7,4.4,12.2,4.4,16.9,0l92.1-87.9
		c4.6-4.4,4.6-11.6,0-16.1L295,142.9L207.8,226z"/>
</g>
<g id="Layer_2">
	<g id="Layer_3">
	</g>
	<g id="Layer_4">
		<path id="XMLID_238_" d="M170.8,116.8H20.3C9.1,116.8,0,107.7,0,96.5V45.6c0-11.2,9.1-20.3,20.3-20.3h150.5
			c11.2,0,20.3,9.1,20.3,20.3v50.9C191.2,107.7,182.1,116.8,170.8,116.8z"/>
		<g id="XMLID_42_">
			<path id="XMLID_44_" class="st2" d="M117.3,35.2c1.7,1.6,4.3,1.6,6,0l14.2-13.5c0.9-0.9,1.2-2.2,0.7-3.3s-1.7-1.9-3-1.9h-5.9V9.1
				c0-1.7-1.5-3.1-3.2-3.1h-11.6c-1.8,0-3.2,1.4-3.2,3.1v7.4h-5.9c-1.3,0-2.5,0.8-3,1.9c-0.5,1.1-0.2,2.5,0.7,3.3L117.3,35.2z"/>
			<path id="XMLID_43_" class="st2" d="M141.5,40.2c0-1.7-1.4-3-3.2-3h-36c-1.8,0-3.2,1.4-3.2,3v2.5c0,1.7,1.4,3,3.2,3h36
				c1.8,0,3.2-1.4,3.2-3L141.5,40.2L141.5,40.2z"/>
		</g>
		<g id="XMLID_2_">
			<path id="XMLID_40_" class="st2" d="M37.7,51.2h30.8v8.4H49.1V70h18.1v8.4H49.1v18.3H37.7V51.2z"/>
			<path id="XMLID_38_" class="st2" d="M109.1,86.1c0,4.3,0.1,7.8,0.3,10.6h-9.9L99,92h-0.2c-1.4,2-4.9,5.4-11.4,5.4
				c-7.4,0-12.9-4.2-12.9-14.4V63.7h11.4v17.8c0,4.8,1.7,7.7,5.7,7.7c3.1,0,4.9-2,5.7-3.6c0.3-0.6,0.4-1.4,0.4-2.2V63.7h11.4V86.1z"
				/>
			<path id="XMLID_36_" class="st2" d="M118.2,48.7h11.4v48h-11.4V48.7z"/>
			<path id="XMLID_34_" class="st2" d="M138.8,48.7h11.4v48h-11.4V48.7z"/>
		</g>
	</g>
</g>
</svg>
