<?xml version="1.0" encoding="utf-8"?>
<!-- Generator: Adobe Illustrator 19.0.0, SVG Export Plug-In . SVG Version: 6.00 Build 0)  -->
<svg version="1.1" xmlns="http://www.w3.org/2000/svg" xmlns:xlink="http://www.w3.org/1999/xlink" x="0px" y="0px"
	 viewBox="0 0 337.4 356.4" style="enable-background:new 0 0 337.4 356.4;" xml:space="preserve">
<style type="text/css">
	.st0{opacity:0.2;}
	.st1{fill:#85B916;}
	.st2{fill:#FFFFFF;}
</style>
<g id="Layer_1">
	<polygon id="XMLID_2_" class="st0" points="336.7,60.4 276.4,60.4 276.4,0 	"/>
	<polygon id="XMLID_5_" class="st0" points="336.4,61.4 276.4,61.4 276.4,1 	"/>
	<path id="XMLID_32_" class="st1" d="M276.9,0.4H78.4v357h259V59.8L276.9,0.4z"/>
	<g id="XMLID_3_">
		<path id="XMLID_7_" class="st2" d="M134.1,330c5,0,8.5-2,11.4-4.9l3.4,2.9c-3.6,3.9-8.1,6.6-14.9,6.6c-10,0-18.1-7.4-18.1-18.3
			c0-10.1,7.4-18.3,17.4-18.3c10.7,0,16.9,8.3,16.9,18.5c0,0.5,0,1-0.1,1.6h-28.8C122.1,325.7,127.7,330,134.1,330z M144.7,314.3
			c-0.6-6.4-4.4-11.9-11.6-11.9c-6.3,0-11.1,5.1-11.8,11.9H144.7z"/>
		<path id="XMLID_4_" class="st2" d="M178.1,317h-11.9v16.7h-5.5v-47.3H179c11.1,0,18.4,5.7,18.4,15.1
			C197.4,311.8,188.5,317,178.1,317z M178.6,291.3h-12.4v20.8h12.2c8.1,0,13.5-4.2,13.5-10.5C191.7,294.8,186.5,291.3,178.6,291.3z
			 M247.6,313.5c0,13.8-8.2,21-20.5,21c-12.1,0-20.4-7.2-20.4-20.6v-27.5h5.5v27.2c0,10.2,5.6,16,15,16c9.1,0,14.8-5.3,14.8-15.6
			v-27.5h5.5V313.5z M297.1,298.2c0,6.2-3.9,9.4-7.8,11c5.8,1.7,10.5,4.9,10.5,11.5c0,8.2-7.1,13-17.8,13h-22.2v-47.3h21.3
			C290.8,286.4,297.1,291,297.1,298.2z M291.5,299c0-4.7-3.9-7.8-10.9-7.8h-15.3v16.3h14.9C286.9,307.5,291.5,304.6,291.5,299z
			 M294.3,320.4c0-5.2-4.5-8.2-13.1-8.2h-15.9v16.7h16.9C289.6,328.9,294.3,325.7,294.3,320.4z"/>
	</g>
	<path id="XMLID_16_" class="st2" d="M207.8,226.6l-65.4-62.4l65.4-62.4l21.8,20.8L186,164.2l21.8,20.8l65.4-62.4l-57-54.3
		c-4.6-4.4-12.2-4.4-16.9,0l-92.1,87.9c-4.7,4.4-4.7,11.6,0,16.1l92.1,87.9c4.7,4.4,12.2,4.4,16.9,0l92.1-87.9
		c4.6-4.4,4.6-11.6,0-16.1L295,143.5L207.8,226.6z"/>
</g>
<g id="Layer_2">
	<g id="Layer_3">
	</g>
	<g id="Layer_4">
		<path id="XMLID_14_" d="M244.2,117.5h-226c-10,0-18.2-8.1-18.2-18.2V44.1C0,34.1,8.1,26,18.2,26h226c10,0,18.2,8.1,18.2,18.2v55.2
			C262.4,109.4,254.2,117.5,244.2,117.5z"/>
	</g>
	<g id="XMLID_1_">
		<path id="XMLID_15_" class="st2" d="M16.3,81.2c3,1.5,7.5,3,12.2,3c5,0,7.7-2.1,7.7-5.3c0-3-2.3-4.8-8.1-6.8
			c-8.1-2.8-13.3-7.3-13.3-14.3c0-8.3,6.9-14.6,18.4-14.6c5.5,0,9.5,1.2,12.4,2.4L43,54.4c-1.9-0.9-5.4-2.3-10.2-2.3
			s-7.1,2.2-7.1,4.7c0,3.1,2.7,4.5,9,6.8c8.6,3.2,12.6,7.6,12.6,14.5c0,8.1-6.3,15-19.6,15c-5.5,0-11-1.4-13.8-3L16.3,81.2z"/>
		<path id="XMLID_18_" class="st2" d="M75,92.5l-0.6-3.5h-0.2c-2.3,2.8-5.9,4.3-10.1,4.3c-7.1,0-11.4-5.2-11.4-10.8
			c0-9.1,8.2-13.5,20.7-13.5v-0.5c0-1.9-1-4.5-6.4-4.5c-3.6,0-7.4,1.2-9.7,2.7l-2-7.1c2.4-1.4,7.3-3.1,13.7-3.1
			c11.7,0,15.5,6.9,15.5,15.2v12.2c0,3.4,0.1,6.6,0.5,8.6H75z M73.7,75.8c-5.8-0.1-10.2,1.3-10.2,5.5c0,2.8,1.9,4.2,4.3,4.2
			c2.7,0,5-1.8,5.7-4c0.1-0.6,0.2-1.2,0.2-1.9V75.8z"/>
		<path id="XMLID_21_" class="st2" d="M93,68.5c0-4.4-0.1-8.1-0.3-11.2h9.2l0.5,4.8h0.2c1.5-2.2,4.6-5.5,10.7-5.5
			c4.5,0,8.1,2.3,9.6,6h0.1c1.3-1.8,2.9-3.2,4.5-4.2c1.9-1.2,4.1-1.7,6.7-1.7c6.8,0,11.9,4.8,11.9,15.3v20.7h-10.7V73.3
			c0-5.1-1.7-8.1-5.2-8.1c-2.5,0-4.3,1.7-5,3.8c-0.3,0.8-0.4,1.9-0.4,2.8v20.6h-10.7V72.7c0-4.5-1.6-7.5-5-7.5c-2.8,0-4.5,2.2-5.1,4
			c-0.4,0.9-0.4,1.9-0.4,2.7v20.5H93V68.5z"/>
		<path id="XMLID_23_" class="st2" d="M154.9,69.1c0-4.6-0.1-8.6-0.3-11.8h9.5l0.5,4.9h0.1c2.6-3.7,6.6-5.7,11.7-5.7
			c7.7,0,14.6,6.7,14.6,17.9c0,12.8-8.1,18.9-16,18.9c-4.2,0-7.6-1.7-9.1-4h-0.1v17.5h-10.9V69.1z M165.9,77.3
			c0,0.9,0.1,1.7,0.2,2.3c0.7,3,3.2,5.2,6.4,5.2c4.8,0,7.6-4,7.6-9.9c0-5.6-2.5-9.9-7.4-9.9c-3.1,0-5.8,2.3-6.6,5.5
			c-0.1,0.6-0.2,1.3-0.2,1.9V77.3z"/>
		<path id="XMLID_26_" class="st2" d="M198,41.3h10.9v51.1H198V41.3z"/>
		<path id="XMLID_28_" class="st2" d="M226.2,78.4c0.4,4.5,4.8,6.7,9.9,6.7c3.7,0,6.8-0.5,9.7-1.4l1.4,7.4c-3.6,1.4-8,2.2-12.7,2.2
			c-12,0-18.8-6.9-18.8-17.9c0-8.9,5.5-18.8,17.8-18.8c11.4,0,15.7,8.9,15.7,17.6c0,1.9-0.2,3.5-0.4,4.3H226.2z M239.1,70.9
			c0-2.7-1.2-7.1-6.2-7.1c-4.6,0-6.5,4.2-6.8,7.1H239.1z"/>
	</g>
	<g id="XMLID_33_">
		<path id="XMLID_237_" class="st2" d="M120,36.3c1.7,1.6,4.3,1.6,6,0l14.2-13.5c0.9-0.9,1.2-2.2,0.7-3.3s-1.7-1.9-3-1.9H132v-7.4
			c0-1.7-1.5-3.1-3.2-3.1h-11.6c-1.8,0-3.2,1.4-3.2,3.1v7.4H108c-1.3,0-2.5,0.8-3,1.9c-0.5,1.1-0.2,2.5,0.7,3.3L120,36.3z"/>
		<path id="XMLID_236_" class="st2" d="M144.2,41.3c0-1.7-1.4-3-3.2-3h-36c-1.8,0-3.2,1.4-3.2,3v2.5c0,1.7,1.4,3,3.2,3h36
			c1.8,0,3.2-1.4,3.2-3L144.2,41.3L144.2,41.3z"/>
	</g>
</g>
</svg>
