<?xml version="1.0" encoding="utf-8"?>
<!-- Generator: Adobe Illustrator 19.0.0, SVG Export Plug-In . SVG Version: 6.00 Build 0)  -->
<svg version="1.1" id="Layer_1" xmlns="http://www.w3.org/2000/svg" xmlns:xlink="http://www.w3.org/1999/xlink" x="0px" y="0px"
	 viewBox="0 0 256.4 357" style="enable-background:new 0 0 256.4 357;" xml:space="preserve">
<style type="text/css">
	.st0{fill:#85B916;}
	.st1{opacity:0.2;}
	.st2{fill:#FFFFFF;}
</style>
<path class="st0" d="M198.9,0H0v357h259V60.2L198.9,0z"/>
<polygon class="st1" points="259.1,60 199,60 199,0 "/>
<g id="XMLID_30_">
	<path id="XMLID_38_" class="st2" d="M60.5,304c4.7,0,8-1.9,10.7-4.8l3.1,2.8c-3.4,3.8-7.6,6.4-14,6.4c-9.3,0-16.9-7.2-16.9-17.7
		c0-9.9,6.9-17.7,16.3-17.7c10,0,15.8,8,15.8,18c0,0.5,0,1-0.1,1.6H48.5C49.2,299.8,54.5,304,60.5,304z M70.4,288.7
		c-0.5-6.2-4.1-11.6-10.9-11.6c-5.9,0-10.4,4.9-11,11.6H70.4z"/>
	<path id="XMLID_31_" class="st2" d="M101.6,291.4H90.4v16.2h-5.2v-46h17.2c10.4,0,17.2,5.5,17.2,14.7
		C119.7,286.2,111.4,291.4,101.6,291.4z M102.1,266.4H90.4v20.2h11.4c7.6,0,12.6-4.1,12.6-10.2C114.4,269.8,109.5,266.4,102.1,266.4
		z M166.7,287.9c0,13.4-7.7,20.4-19.2,20.4c-11.4,0-19.1-7-19.1-20v-26.7h5.2V288c0,9.9,5.3,15.5,14.1,15.5
		c8.5,0,13.9-5.1,13.9-15.2v-26.7h5.2V287.9z M213,273.1c0,6-3.7,9.1-7.3,10.7c5.5,1.6,9.9,4.8,9.9,11.2c0,7.9-6.6,12.6-16.7,12.6
		h-20.8v-46h19.9C207.1,261.6,213,266.1,213,273.1z M207.8,273.8c0-4.6-3.6-7.6-10.2-7.6h-14.3v15.8h13.9
		C203.5,282.1,207.8,279.3,207.8,273.8z M210.4,294.6c0-5.1-4.2-7.9-12.2-7.9h-14.9v16.2h15.8C206,302.9,210.4,299.8,210.4,294.6z"
		/>
</g>
<path id="XMLID_29_" class="st2" d="M129.7,203.2l-58.5-58.5l58.5-58.5l19.5,19.5l-39,39l19.5,19.5l58.5-58.5l-50.9-50.9
	c-4.2-4.2-10.9-4.2-15.1,0l-82.4,82.4c-4.2,4.2-4.2,10.9,0,15.1l82.4,82.4c4.2,4.2,10.9,4.2,15.1,0l82.4-82.4
	c4.2-4.2,4.2-10.9,0-15.1l-12-12L129.7,203.2z"/>
</svg>
