<?xml version="1.0" encoding="utf-8"?>
<!-- Generator: Adobe Illustrator 19.0.0, SVG Export Plug-In . SVG Version: 6.00 Build 0)  -->
<svg version="1.1" id="Layer_1" xmlns="http://www.w3.org/2000/svg" xmlns:xlink="http://www.w3.org/1999/xlink" x="0px" y="0px"
	 viewBox="-310 102.6 337.4 356.4" style="enable-background:new -310 102.6 337.4 356.4;" xml:space="preserve">
<style type="text/css">
	.st0{opacity:0.2;enable-background:new    ;}
	.st1{fill:#333399;}
	.st2{fill:#FFFFFF;}
	.st3{enable-background:new    ;}
</style>
<g id="Layer_1_1_">
	<polygon id="XMLID_2_" class="st0" points="26.7,163 -33.6,163 -33.6,102.6 	"/>
	<polygon id="XMLID_5_" class="st0" points="26.4,164 -33.6,164 -33.6,103.6 	"/>
	<path id="XMLID_41_" class="st1" d="M-32.8,102.6h-198.9v357h259V162.8L-32.8,102.6z"/>
	<polygon id="XMLID_28_" class="st0" points="27.4,166.6 -32.7,166.6 -32.7,106.6 	"/>
	<path id="XMLID_1_" class="st2" d="M-108.9,372.4l-98.3-21.4V222.7l98.3,21.4V372.4z M2.5,222.7l-98.3,21.4v128.3L2.5,351V222.7z
		 M-102.3,234.5l78.6-17.1v-16l-78.6,32.1l-78.7-32.1v16L-102.3,234.5z"/>
	<g id="XMLID_34_">
		<path id="XMLID_35_" class="st2" d="M-198.7,394.3v12.4h12v-12.4h7.3v32.4h-7.3v-13.5h-12v13.5h-7.3v-32.4H-198.7z"/>
		<path id="XMLID_37_" class="st2" d="M-159.8,426.7l-0.4-2.4h-0.1c-1.5,1.9-3.9,2.9-6.7,2.9c-4.8,0-7.6-3.5-7.6-7.2
			c0-6.1,5.5-9,13.8-9v-0.3c0-1.2-0.7-3-4.3-3c-2.4,0-4.9,0.8-6.5,1.8l-1.3-4.7c1.6-0.9,4.8-2.1,9.1-2.1c7.8,0,10.3,4.6,10.3,10.1
			v8.2c0,2.3,0.1,4.4,0.3,5.7H-159.8z M-160.7,415.6c-3.8,0-6.8,0.9-6.8,3.7c0,1.9,1.2,2.8,2.9,2.8c1.8,0,3.3-1.2,3.8-2.7
			c0.1-0.4,0.1-0.8,0.1-1.2V415.6z"/>
		<path id="XMLID_40_" class="st2" d="M-147.8,411c0-3.5-0.1-5.7-0.2-7.7h6.3l0.2,4.3h0.2c1.2-3.4,4.1-4.8,6.3-4.8
			c0.7,0,1,0,1.5,0.1v6.9c-0.5-0.1-1.2-0.2-2-0.2c-2.7,0-4.5,1.4-5,3.7c-0.1,0.5-0.1,1.1-0.1,1.6v11.9h-7.3V411H-147.8z"/>
		<path id="XMLID_44_" class="st2" d="M-107.2,392.6v27.1c0,2.6,0.1,5.4,0.2,7h-6.5l-0.3-3.5h-0.1c-1.5,2.6-4.3,4-7.3,4
			c-5.6,0-10-4.8-10-12c0-7.9,4.9-12.5,10.5-12.5c2.9,0,5.1,1,6.2,2.6h0.1v-12.7H-107.2z M-114.5,413.2c0-0.4,0-0.9-0.1-1.3
			c-0.4-2-2-3.6-4.3-3.6c-3.3,0-5,3-5,6.7c0,4,2,6.5,5,6.5c2.1,0,3.8-1.4,4.2-3.5c0.1-0.5,0.2-1.1,0.2-1.7
			C-114.5,416.3-114.5,413.2-114.5,413.2z"/>
		<path id="XMLID_47_" class="st2" d="M-83.7,426.1c-1.3,0.6-3.7,1.1-6.5,1.1c-7.6,0-12.4-4.6-12.4-12c0-6.9,4.7-12.5,13.4-12.5
			c1.9,0,4,0.3,5.6,0.9l-1.2,5.4c-0.9-0.4-2.2-0.7-4.1-0.7c-3.8,0-6.3,2.7-6.3,6.6c0,4.3,2.9,6.6,6.4,6.6c1.7,0,3.1-0.3,4.2-0.7
			L-83.7,426.1z"/>
		<path id="XMLID_49_" class="st2" d="M-57.1,414.7c0,8.6-6.1,12.5-12.4,12.5c-6.9,0-12.1-4.5-12.1-12.1s5-12.4,12.5-12.4
			C-61.9,402.7-57.1,407.6-57.1,414.7z M-74,414.9c0,4,1.7,7.1,4.8,7.1c2.8,0,4.7-2.8,4.7-7.1c0-3.5-1.3-7.1-4.7-7.1
			C-72.8,407.9-74,411.5-74,414.9z"/>
		<path id="XMLID_52_" class="st2" d="M-47.6,403.2l3.2,10.9c0.6,2,1,3.8,1.3,5.7h0.1c0.4-1.9,0.8-3.7,1.3-5.7l3-10.9h7.7l-8.7,23.5
			H-47l-8.5-23.5H-47.6z"/>
		<path id="XMLID_54_" class="st2" d="M-22.6,417.3c0.2,3,3.2,4.5,6.6,4.5c2.5,0,4.5-0.3,6.5-1l1,4.9c-2.4,1-5.3,1.4-8.5,1.4
			c-8,0-12.5-4.6-12.5-12c0-6,3.7-12.5,11.9-12.5c7.6,0,10.5,5.9,10.5,11.7c0,1.2-0.1,2.4-0.2,2.9h-15.3V417.3z M-14,412.3
			c0-1.8-0.8-4.8-4.1-4.8c-3.1,0-4.3,2.8-4.5,4.8H-14z"/>
		<path id="XMLID_57_" class="st2" d="M-2.9,411c0-3.5-0.1-5.7-0.2-7.7h6.3l0.2,4.3h0.2c1.2-3.4,4.1-4.8,6.3-4.8c0.7,0,1,0,1.5,0.1
			v6.9c-0.5-0.1-1.2-0.2-2-0.2c-2.7,0-4.5,1.4-5,3.7c-0.1,0.5-0.1,1.1-0.1,1.6v11.9H-3V411H-2.9z"/>
	</g>
</g>
<path id="XMLID_14_" d="M-65.8,220.1h-226c-10,0-18.2-8.1-18.2-18.2v-55.2c0-10,8.1-18.1,18.2-18.1h226c10,0,18.2,8.1,18.2,18.2V202
	C-47.6,212-55.8,220.1-65.8,220.1z"/>
<g class="st3">
	<path class="st2" d="M-226.5,171.2c0,15.9-9.6,25.6-23.8,25.6c-14.4,0-22.8-10.9-22.8-24.7c0-14.5,9.3-25.4,23.6-25.4
		C-234.6,146.7-226.5,157.8-226.5,171.2z M-261.5,171.9c0,9.5,4.5,16.2,11.8,16.2c7.4,0,11.7-7.1,11.7-16.5
		c0-8.7-4.2-16.2-11.7-16.2C-257.2,155.4-261.5,162.5-261.5,171.9z"/>
	<path class="st2" d="M-219.3,172.4c0-5.2-0.1-8.6-0.3-11.6h9.4l0.4,6.5h0.3c1.8-5.1,6.1-7.3,9.5-7.3c1,0,1.5,0,2.3,0.1v10.3
		c-0.8-0.1-1.7-0.3-3-0.3c-4,0-6.8,2.2-7.5,5.5c-0.1,0.7-0.2,1.6-0.2,2.4V196h-10.9V172.4z"/>
	<path class="st2" d="M-158.4,144.9v40.6c0,4,0.1,8.1,0.3,10.5h-9.7l-0.5-5.2h-0.1c-2.2,4-6.5,6-11,6c-8.4,0-15-7.1-15-18.1
		c-0.1-11.9,7.3-18.7,15.8-18.7c4.3,0,7.7,1.5,9.3,4h0.1v-19.1H-158.4z M-169.4,175.7c0-0.6-0.1-1.4-0.1-1.9c-0.6-3-3-5.4-6.4-5.4
		c-5,0-7.6,4.5-7.6,10c0,6,3,9.7,7.5,9.7c3.2,0,5.7-2.2,6.3-5.3c0.2-0.8,0.3-1.6,0.3-2.5V175.7z"/>
	<path class="st2" d="M-141.2,181.9c0.4,4.5,4.8,6.7,9.9,6.7c3.7,0,6.8-0.5,9.7-1.4l1.4,7.4c-3.6,1.4-8,2.2-12.7,2.2
		c-12,0-18.8-6.9-18.8-17.9c0-8.9,5.5-18.8,17.8-18.8c11.4,0,15.7,8.9,15.7,17.6c0,1.9-0.2,3.5-0.4,4.3H-141.2z M-128.3,174.4
		c0-2.7-1.2-7.1-6.2-7.1c-4.6,0-6.5,4.2-6.8,7.1H-128.3z"/>
	<path class="st2" d="M-111.6,172.4c0-5.2-0.1-8.6-0.3-11.6h9.4l0.4,6.5h0.3c1.8-5.1,6.1-7.3,9.5-7.3c1,0,1.5,0,2.3,0.1v10.3
		c-0.8-0.1-1.7-0.3-3-0.3c-4,0-6.8,2.2-7.5,5.5c-0.1,0.7-0.2,1.6-0.2,2.4V196h-10.9V172.4z"/>
</g>
</svg>
