<?xml version="1.0" encoding="utf-8"?>
<!-- Generator: Adobe Illustrator 19.0.0, SVG Export Plug-In . SVG Version: 6.00 Build 0)  -->
<svg version="1.1" id="Layer_1" xmlns="http://www.w3.org/2000/svg" xmlns:xlink="http://www.w3.org/1999/xlink" x="0px" y="0px"
	 viewBox="0 0 259.1 357" style="enable-background:new 0 0 259.1 357;" xml:space="preserve">
<style type="text/css">
	.st0{fill:#333399;}
	.st1{opacity:0.2;}
	.st2{fill:#FFFFFF;}
</style>
<path id="XMLID_41_" class="st0" d="M198.9,0H0v357h259V60.2L198.9,0z"/>
<polygon id="XMLID_28_" class="st1" points="259.1,60 199,60 199,0 "/>
<path id="XMLID_2_" class="st2" d="M122.8,265.8l-98.3-21.4V116.1l98.3,21.4V265.8z M234.2,116.1l-98.3,21.4v128.3l98.3-21.4V116.1z
	 M129.4,127.9l78.6-17.1v-16l-78.6,32.1L50.7,94.8v16L129.4,127.9z"/>
<g id="XMLID_34_">
	<path id="XMLID_35_" class="st2" d="M33,287.7v12.4h12v-12.4h7.3v32.4h-7.3v-13.5H33v13.5h-7.3v-32.4H33z"/>
	<path id="XMLID_37_" class="st2" d="M71.9,320.1l-0.4-2.4h-0.1c-1.5,1.9-3.9,2.9-6.7,2.9c-4.8,0-7.6-3.5-7.6-7.2
		c0-6.1,5.5-9,13.8-9v-0.3c0-1.2-0.7-3-4.3-3c-2.4,0-4.9,0.8-6.5,1.8l-1.3-4.7c1.6-0.9,4.8-2.1,9.1-2.1c7.8,0,10.3,4.6,10.3,10.1
		v8.2c0,2.3,0.1,4.4,0.3,5.7H71.9z M71,309c-3.8,0-6.8,0.9-6.8,3.7c0,1.9,1.2,2.8,2.9,2.8c1.8,0,3.3-1.2,3.8-2.7
		c0.1-0.4,0.1-0.8,0.1-1.2V309z"/>
	<path id="XMLID_40_" class="st2" d="M83.9,304.4c0-3.5-0.1-5.7-0.2-7.7H90l0.2,4.3h0.2c1.2-3.4,4.1-4.8,6.3-4.8c0.7,0,1,0,1.5,0.1
		v6.9c-0.5-0.1-1.2-0.2-2-0.2c-2.7,0-4.5,1.4-5,3.7c-0.1,0.5-0.1,1.1-0.1,1.6v11.9h-7.3V304.4z"/>
	<path id="XMLID_44_" class="st2" d="M124.5,286v27.1c0,2.6,0.1,5.4,0.2,7h-6.5l-0.3-3.5h-0.1c-1.5,2.6-4.3,4-7.3,4
		c-5.6,0-10-4.8-10-12c0-7.9,4.9-12.5,10.5-12.5c2.9,0,5.1,1,6.2,2.6h0.1V286H124.5z M117.2,306.6c0-0.4,0-0.9-0.1-1.3
		c-0.4-2-2-3.6-4.3-3.6c-3.3,0-5,3-5,6.7c0,4,2,6.5,5,6.5c2.1,0,3.8-1.4,4.2-3.5c0.1-0.5,0.2-1.1,0.2-1.7V306.6z"/>
	<path id="XMLID_47_" class="st2" d="M148,319.5c-1.3,0.6-3.7,1.1-6.5,1.1c-7.6,0-12.4-4.6-12.4-12c0-6.9,4.7-12.5,13.4-12.5
		c1.9,0,4,0.3,5.6,0.9l-1.2,5.4c-0.9-0.4-2.2-0.7-4.1-0.7c-3.8,0-6.3,2.7-6.3,6.6c0,4.3,2.9,6.6,6.4,6.6c1.7,0,3.1-0.3,4.2-0.7
		L148,319.5z"/>
	<path id="XMLID_49_" class="st2" d="M174.6,308.1c0,8.6-6.1,12.5-12.4,12.5c-6.9,0-12.1-4.5-12.1-12.1c0-7.6,5-12.4,12.5-12.4
		C169.8,296.1,174.6,301,174.6,308.1z M157.7,308.3c0,4,1.7,7.1,4.8,7.1c2.8,0,4.7-2.8,4.7-7.1c0-3.5-1.3-7.1-4.7-7.1
		C158.9,301.3,157.7,304.9,157.7,308.3z"/>
	<path id="XMLID_52_" class="st2" d="M184.1,296.6l3.2,10.9c0.6,2,1,3.8,1.3,5.7h0.1c0.4-1.9,0.8-3.7,1.3-5.7l3-10.9h7.7l-8.7,23.5
		h-7.3l-8.5-23.5H184.1z"/>
	<path id="XMLID_54_" class="st2" d="M209.1,310.7c0.2,3,3.2,4.5,6.6,4.5c2.5,0,4.5-0.3,6.5-1l1,4.9c-2.4,1-5.3,1.4-8.5,1.4
		c-8,0-12.5-4.6-12.5-12c0-6,3.7-12.5,11.9-12.5c7.6,0,10.5,5.9,10.5,11.7c0,1.2-0.1,2.4-0.2,2.9H209.1z M217.7,305.7
		c0-1.8-0.8-4.8-4.1-4.8c-3.1,0-4.3,2.8-4.5,4.8H217.7z"/>
	<path id="XMLID_57_" class="st2" d="M228.8,304.4c0-3.5-0.1-5.7-0.2-7.7h6.3l0.2,4.3h0.2c1.2-3.4,4.1-4.8,6.3-4.8
		c0.7,0,1,0,1.5,0.1v6.9c-0.5-0.1-1.2-0.2-2-0.2c-2.7,0-4.5,1.4-5,3.7c-0.1,0.5-0.1,1.1-0.1,1.6v11.9h-7.3V304.4z"/>
</g>
</svg>
