<?xml version="1.0" encoding="utf-8"?>
<!-- Generator: Adobe Illustrator 19.0.0, SVG Export Plug-In . SVG Version: 6.00 Build 0)  -->
<svg version="1.1" xmlns="http://www.w3.org/2000/svg" xmlns:xlink="http://www.w3.org/1999/xlink" x="0px" y="0px"
	 viewBox="0 0 259 356.4" style="enable-background:new 0 0 259 356.4;" xml:space="preserve">
<style type="text/css">
	.st0{fill:#4996E2;}
	.st1{opacity:0.2;}
	.st2{fill:#FFFFFF;}
</style>
<g id="Layer_1">
	<path id="XMLID_3_" class="st0" d="M199.4-0.6H1v357h259V60.5L199.4-0.6z"/>
	<polygon id="XMLID_2_" class="st1" points="258.4,60.4 198,60.4 198,0 	"/>
</g>
<g id="Layer_2">
	<path id="XMLID_5_" class="st2" d="M195,219.6C195,219.6,195,219.6,195,219.6C195,219.6,195,219.6,195,219.6l-0.7-122.2h0l0-2.2
		L87.3,108.3l0,7.8l0.4,94.2c7.9,0.7,0.7-2.3-7.4-2.3c-14.8,0-26.9,10-26.9,22.4c0,12.4,12,22.2,26.9,22.2
		c14.7,0,26.7-8.2,26.9-22.2H107v0c0,0,0,0,0,0c0,0,0,0,0,0L106.1,123l70.5-9.4l1.1,92.3c5.5-5.8-1.7-8.7-9.8-8.7
		c-14.8,0-26.9,10-26.9,22.4c0,12.4,12,22.6,26.9,22.6c14.7,0,26.7-8.8,26.9-21.8h0.2V219.6z"/>
	<g id="XMLID_6_">
		<path id="XMLID_7_" class="st2" d="M147.2,294.5c-0.2-5.6-0.4-12.4-0.4-19.1h-0.2c-1.5,5.9-3.4,12.6-5.2,18l-5.7,18.2h-8.2l-5-18
			c-1.5-5.5-3.1-12.1-4.2-18.2h-0.1c-0.3,6.3-0.5,13.5-0.8,19.3l-0.8,17.7h-9.7l3-46.6h14l4.6,15.6c1.5,5.4,2.9,11.2,3.9,16.7h0.2
			c1.3-5.4,2.9-11.5,4.4-16.7l5-15.5h13.8l2.6,46.6h-10.3L147.2,294.5z"/>
		<path id="XMLID_9_" class="st2" d="M166.3,266.4c3.2-0.6,7.8-1,14.2-1c6.5,0,11.1,1.2,14.2,3.7c3,2.4,5,6.2,5,10.8
			c0,4.6-1.5,8.4-4.3,11.1c-3.6,3.4-8.9,4.9-15.1,4.9c-1.4,0-2.6-0.1-3.6-0.2v16.7h-10.4V266.4z M176.7,287.5c0.9,0.2,2,0.3,3.5,0.3
			c5.6,0,9.1-2.8,9.1-7.6c0-4.3-3-6.8-8.2-6.8c-2.1,0-3.6,0.2-4.4,0.4V287.5z"/>
		<path id="XMLID_12_" class="st2" d="M206.6,302c1.9,1,6.2,2.8,10.4,2.8c5.5,0,8.2-2.6,8.2-6c0-4.4-4.4-6.4-9.1-6.4h-4.3v-7.5h4.1
			c3.5-0.1,8-1.4,8-5.2c0-2.7-2.2-4.7-6.6-4.7c-3.7,0-7.5,1.6-9.4,2.7l-2.1-7.6c2.7-1.7,8.1-3.4,13.9-3.4c9.6,0,14.9,5,14.9,11.2
			c0,4.8-2.7,8.5-8.2,10.4v0.1c5.4,1,9.7,5,9.7,10.9c0,7.9-7,13.8-18.4,13.8c-5.8,0-10.7-1.5-13.3-3.2L206.6,302z"/>
	</g>
</g>
</svg>
