<?xml version="1.0" encoding="utf-8"?>
<!-- Generator: Adobe Illustrator 19.0.0, SVG Export Plug-In . SVG Version: 6.00 Build 0)  -->
<svg version="1.1" xmlns="http://www.w3.org/2000/svg" xmlns:xlink="http://www.w3.org/1999/xlink" x="0px" y="0px"
	 viewBox="0 0 337.7 357" style="enable-background:new 0 0 337.7 357;" xml:space="preserve">
<style type="text/css">
	.st0{fill:#FFFFFF;}
	.st1{fill:#4996E2;}
	.st2{opacity:0.2;}
</style>
<g id="Layer_1">
</g>
<g id="Layer_2">
	<g id="Layer_3">
	</g>
	<g id="Layer_4">
	</g>
	<path id="XMLID_45_" d="M267.8,154.5H117.3c-11.2,0-20.3-9.1-20.3-20.3V83.3c0-11.2,9.1-20.3,20.3-20.3h150.5
		c11.2,0,20.3,9.1,20.3,20.3v50.9C288.2,145.4,279.1,154.5,267.8,154.5z"/>
	<g id="XMLID_42_">
		<path id="XMLID_44_" class="st0" d="M214.3,72.9c1.7,1.6,4.3,1.6,6,0l14.2-13.5c0.9-0.9,1.2-2.2,0.7-3.3s-1.7-1.9-3-1.9h-5.9v-7.4
			c0-1.7-1.5-3.1-3.2-3.1h-11.6c-1.8,0-3.2,1.4-3.2,3.1v7.4h-5.9c-1.3,0-2.5,0.8-3,1.9c-0.5,1.1-0.2,2.5,0.7,3.3L214.3,72.9z"/>
		<path id="XMLID_43_" class="st0" d="M238.5,77.8c0-1.7-1.4-3-3.2-3h-36c-1.8,0-3.2,1.4-3.2,3v2.5c0,1.7,1.4,3,3.2,3h36
			c1.8,0,3.2-1.4,3.2-3L238.5,77.8L238.5,77.8z"/>
	</g>
	<g id="XMLID_2_">
		<path id="XMLID_34_" class="st0" d="M134.7,88.8h30.8v8.4h-19.4v10.4h18.1v8.4h-18.1v18.3h-11.4V88.8z"/>
		<path id="XMLID_35_" class="st0" d="M206.1,123.8c0,4.3,0.1,7.8,0.3,10.6h-9.9l-0.5-4.7h-0.2c-1.4,2-4.9,5.4-11.4,5.4
			c-7.4,0-12.9-4.2-12.9-14.4v-19.4h11.4v17.8c0,4.8,1.7,7.7,5.7,7.7c3.1,0,4.9-2,5.7-3.6c0.3-0.6,0.4-1.4,0.4-2.2v-19.7h11.4V123.8
			z"/>
		<path id="XMLID_37_" class="st0" d="M215.2,86.4h11.4v48h-11.4V86.4z"/>
		<path id="XMLID_39_" class="st0" d="M235.8,86.4h11.4v48h-11.4V86.4z"/>
	</g>
	<path id="XMLID_249_" class="st1" d="M276.8,0H78.7v357h259V60.8L276.8,0z"/>
	<polygon id="XMLID_248_" class="st2" points="337,61 276.7,61 276.7,0.6 	"/>
	<path id="XMLID_247_" class="st0" d="M269.7,207.2C269.7,207.2,269.7,207.2,269.7,207.2C269.7,207.2,269.7,207.2,269.7,207.2
		L269,85h0l0-2.2l-97.7,12.3l0.1,10.8l0.4,94.2c-1.5-1.5-8.8-4.5-16.8-4.5c-14.8,0-26.9,10-26.9,22.4c0,12.4,12,22.2,26.9,22.2
		c14.7,0,26.7-8.2,26.9-22.2h-0.2v0c0,0,0,0,0,0c0,0,0,0,0,0l-0.9-107.3l76.7-9.9l1.1,92.3c-0.7-5.3-7.9-8.3-16-8.3
		c-14.8,0-26.9,10-26.9,22.4c0,12.4,12,22.6,26.9,22.6c14.7,0,26.7-8.8,26.9-21.8h0.2V207.2z"/>
	<g id="XMLID_239_">
		<path id="XMLID_245_" class="st0" d="M226.8,274.5c-0.2-5.6-0.4-12.4-0.4-19.1h-0.2c-1.5,5.9-3.4,12.6-5.2,18l-5.7,18.2h-8.2
			l-5-18c-1.5-5.5-3.1-12.1-4.2-18.2h-0.1c-0.3,6.3-0.5,13.5-0.8,19.3l-0.8,17.7h-9.7l3-46.6h14l4.6,15.6c1.5,5.4,2.9,11.2,3.9,16.7
			h0.2c1.3-5.4,2.9-11.5,4.4-16.7l5-15.5h13.8l2.6,46.6h-10.3L226.8,274.5z"/>
		<path id="XMLID_242_" class="st0" d="M245.9,246.4c3.2-0.6,7.8-1,14.2-1c6.5,0,11.1,1.2,14.2,3.7c3,2.4,5,6.2,5,10.8
			c0,4.6-1.5,8.4-4.3,11.1c-3.6,3.4-8.9,4.9-15.1,4.9c-1.4,0-2.6-0.1-3.6-0.2v16.7h-10.4V246.4z M256.4,267.5c0.9,0.2,2,0.3,3.5,0.3
			c5.6,0,9.1-2.8,9.1-7.6c0-4.3-3-6.8-8.2-6.8c-2.1,0-3.6,0.2-4.4,0.4V267.5z"/>
		<path id="XMLID_240_" class="st0" d="M286.3,282.1c1.9,1,6.2,2.8,10.4,2.8c5.5,0,8.2-2.6,8.2-6c0-4.4-4.4-6.4-9.1-6.4h-4.3v-7.5
			h4.1c3.5-0.1,8-1.4,8-5.2c0-2.7-2.2-4.7-6.6-4.7c-3.7,0-7.5,1.6-9.4,2.7l-2.1-7.6c2.7-1.7,8.1-3.4,13.9-3.4
			c9.6,0,14.9,5,14.9,11.2c0,4.8-2.7,8.5-8.2,10.4v0.1c5.4,1,9.7,5,9.7,10.9c0,7.9-7,13.8-18.4,13.8c-5.8,0-10.7-1.5-13.3-3.2
			L286.3,282.1z"/>
	</g>
	<path id="XMLID_238_" d="M170.8,119.5H20.3C9.1,119.5,0,110.4,0,99.2V48.3C0,37.1,9.1,28,20.3,28h150.5c11.2,0,20.3,9.1,20.3,20.3
		v50.9C191.2,110.4,182.1,119.5,170.8,119.5z"/>
	<g id="XMLID_33_">
		<path id="XMLID_237_" class="st0" d="M117.3,37.9c1.7,1.6,4.3,1.6,6,0l14.2-13.5c0.9-0.9,1.2-2.2,0.7-3.3c-0.5-1.1-1.7-1.9-3-1.9
			h-5.9v-7.4c0-1.7-1.5-3.1-3.2-3.1h-11.6c-1.8,0-3.2,1.4-3.2,3.1v7.4h-5.9c-1.3,0-2.5,0.8-3,1.9c-0.5,1.1-0.2,2.5,0.7,3.3
			L117.3,37.9z"/>
		<path id="XMLID_236_" class="st0" d="M141.5,42.8c0-1.7-1.4-3-3.2-3h-36c-1.8,0-3.2,1.4-3.2,3v2.5c0,1.7,1.4,3,3.2,3h36
			c1.8,0,3.2-1.4,3.2-3L141.5,42.8L141.5,42.8z"/>
	</g>
	<g id="XMLID_11_">
		<path id="XMLID_31_" class="st0" d="M37.7,53.8h30.8v8.4H49.1v10.4h18.1v8.4H49.1v18.3H37.7V53.8z"/>
		<path id="XMLID_29_" class="st0" d="M109.1,88.8c0,4.3,0.1,7.8,0.3,10.6h-9.9L99,94.7h-0.2c-1.4,2-4.9,5.4-11.4,5.4
			c-7.4,0-12.9-4.2-12.9-14.4V66.3h11.4v17.8c0,4.8,1.7,7.7,5.7,7.7c3.1,0,4.9-2,5.7-3.6c0.3-0.6,0.4-1.4,0.4-2.2V66.3h11.4V88.8z"
			/>
		<path id="XMLID_14_" class="st0" d="M118.2,51.4h11.4v48h-11.4V51.4z"/>
		<path id="XMLID_12_" class="st0" d="M138.8,51.4h11.4v48h-11.4V51.4z"/>
	</g>
</g>
</svg>
