<?xml version="1.0" encoding="utf-8"?>
<!-- Generator: Adobe Illustrator 19.0.0, SVG Export Plug-In . SVG Version: 6.00 Build 0)  -->
<svg version="1.1" id="Layer_1" xmlns="http://www.w3.org/2000/svg" xmlns:xlink="http://www.w3.org/1999/xlink" x="0px" y="0px"
	 viewBox="0 0 259.1 357" style="enable-background:new 0 0 259.1 357;" xml:space="preserve">
<style type="text/css">
	.st0{fill:#583699;}
	.st1{opacity:0.2;}
	.st2{fill:#FFFFFF;}
</style>
<path id="XMLID_41_" class="st0" d="M198.9,0H0v357h259V60.2L198.9,0z"/>
<polygon id="XMLID_28_" class="st1" points="259.1,60 199,60 199,0 "/>
<path id="XMLID_2_" class="st2" d="M189.6,195.7h-26.8c-7.1,0-13.4,6.7-13.4,13.4H203C203,202,196.3,195.7,189.6,195.7z M178,108.5
	c-35,0-43.8,6.7-48.9,11.7c-5-5-13.8-11.7-48.9-11.7s-51.8,9.6-51.8,16.4v122.9c6.1-3.4,25-10.1,44.9-11.7
	c24.1-1.9,49.1,1.9,49.1,6.7c0,3.4,1.7,6.5,6.5,6.7c0,0,0,0,0.2,0c0,0,0,0,0.2,0c4.8-0.2,6.5-3.4,6.5-6.7c0-4.8,25-8.6,49.1-6.7
	c19.7,1.5,38.8,8.4,44.9,11.7V124.8C229.8,118.1,213.1,108.5,178,108.5z M122.5,228.4c-6.3-3.4-21.6-5.9-40.3-5.9
	s-35.7,2.5-40.3,5.7c0,0,0-86.2,0-92.9s13.4-12.4,40.3-12.4s40.3,5.7,40.3,12.4S122.5,228.4,122.5,228.4z M216.4,228.2
	c-4.6-3.1-21.6-5.7-40.3-5.7s-34,2.5-40.3,5.9c0,0,0-86.4,0-93.1s13.4-12.4,40.3-12.4s40.3,5.7,40.3,12.4S216.4,228.2,216.4,228.2z
	 M189.6,168.9h-26.8c-7.1,0-13.4,6.7-13.4,13.4H203C203,175.2,196.3,168.9,189.6,168.9z M189.6,142h-26.8c-7.1,0-13.4,6.7-13.4,13.4
	H203C203,148.3,196.3,142,189.6,142z M95.6,168.9H68.8c-6.7,0-13.4,6.3-13.4,13.4h53.7C109.1,175.6,102.8,168.9,95.6,168.9z
	 M95.6,195.7H68.8c-6.7,0-13.4,6.3-13.4,13.4h53.7C109.1,202.4,102.8,195.7,95.6,195.7z M95.6,142H68.8c-6.7,0-13.4,6.3-13.4,13.4
	h53.7C109.1,148.7,102.8,142,95.6,142z"/>
<g id="XMLID_39_">
	<path id="XMLID_40_" class="st2" d="M23.6,281.2c2.3-0.4,5.4-0.7,9.9-0.7c4.5,0,7.7,0.9,9.9,2.6c2.1,1.6,3.5,4.3,3.5,7.5
		c0,3.2-1.1,5.9-3,7.7c-2.5,2.4-6.2,3.4-10.5,3.4c-1,0-1.8,0-2.5-0.1v11.6h-7.2V281.2z M30.9,295.9c0.6,0.1,1.4,0.2,2.4,0.2
		c3.9,0,6.3-2,6.3-5.3c0-3-2.1-4.8-5.7-4.8c-1.5,0-2.5,0.1-3,0.3V295.9z"/>
	<path id="XMLID_45_" class="st2" d="M63.8,313.2l-0.4-2.4h-0.1c-1.5,1.9-3.9,2.9-6.7,2.9c-4.8,0-7.6-3.5-7.6-7.2
		c0-6.1,5.5-9,13.8-9v-0.3c0-1.2-0.7-3-4.3-3c-2.4,0-4.9,0.8-6.5,1.8l-1.3-4.7c1.6-0.9,4.8-2.1,9.1-2.1c7.8,0,10.3,4.6,10.3,10.1
		v8.2c0,2.3,0.1,4.4,0.3,5.7H63.8z M62.9,302.1c-3.8,0-6.8,0.9-6.8,3.7c0,1.9,1.2,2.8,2.9,2.8c1.8,0,3.3-1.2,3.8-2.7
		c0.1-0.4,0.1-0.8,0.1-1.2V302.1z"/>
	<path id="XMLID_48_" class="st2" d="M75.8,297.6c0-3.1-0.1-5.7-0.2-7.9h6.3l0.3,3.3h0.1c1.7-2.5,4.4-3.8,7.8-3.8
		c5.1,0,9.7,4.5,9.7,12c0,8.5-5.4,12.6-10.7,12.6c-2.8,0-5-1.2-6.1-2.7h-0.1v11.7h-7.3V297.6z M83.1,303.1c0,0.6,0,1.1,0.1,1.5
		c0.5,2,2.2,3.5,4.3,3.5c3.2,0,5-2.6,5-6.6c0-3.7-1.7-6.6-4.9-6.6c-2.1,0-3.9,1.5-4.4,3.7c-0.1,0.4-0.1,0.9-0.1,1.3V303.1z"/>
	<path id="XMLID_51_" class="st2" d="M110.2,303.8c0.2,3,3.2,4.5,6.6,4.5c2.5,0,4.5-0.3,6.5-1l1,4.9c-2.4,1-5.3,1.4-8.5,1.4
		c-8,0-12.5-4.6-12.5-12c0-6,3.7-12.5,11.9-12.5c7.6,0,10.5,5.9,10.5,11.7c0,1.2-0.1,2.4-0.2,2.9H110.2z M118.8,298.8
		c0-1.8-0.8-4.8-4.1-4.8c-3.1,0-4.3,2.8-4.5,4.8H118.8z"/>
	<path id="XMLID_54_" class="st2" d="M130,297.4c0-3.5-0.1-5.7-0.2-7.7h6.3l0.2,4.3h0.2c1.2-3.4,4.1-4.8,6.3-4.8c0.7,0,1,0,1.5,0.1
		v6.9c-0.5-0.1-1.2-0.2-2-0.2c-2.7,0-4.5,1.4-5,3.7c-0.1,0.5-0.1,1.1-0.1,1.6v11.9H130V297.4z"/>
	<path id="XMLID_56_" class="st2" d="M147.9,313.2c0.1-1.5,0.2-4.4,0.2-7v-27.1h7.3v13.4h0.1c1.4-2,3.8-3.3,7.1-3.3
		c5.6,0,9.7,4.7,9.7,11.9c0,8.4-5.4,12.7-10.8,12.7c-2.7,0-5.4-1-7.1-3.8h-0.1l-0.3,3.3H147.9z M155.4,303.2c0,0.5,0,0.9,0.1,1.3
		c0.5,2,2.2,3.5,4.3,3.5c3.1,0,5-2.4,5-6.6c0-3.6-1.6-6.5-5-6.5c-2,0-3.8,1.5-4.3,3.6c-0.1,0.4-0.1,0.9-0.1,1.3V303.2z"/>
	<path id="XMLID_59_" class="st2" d="M190.1,313.2l-0.4-2.4h-0.1c-1.5,1.9-3.9,2.9-6.7,2.9c-4.8,0-7.6-3.5-7.6-7.2
		c0-6.1,5.5-9,13.8-9v-0.3c0-1.2-0.7-3-4.3-3c-2.4,0-4.9,0.8-6.5,1.8l-1.3-4.7c1.6-0.9,4.8-2.1,9.1-2.1c7.8,0,10.3,4.6,10.3,10.1
		v8.2c0,2.3,0.1,4.4,0.3,5.7H190.1z M189.2,302.1c-3.8,0-6.8,0.9-6.8,3.7c0,1.9,1.2,2.8,2.9,2.8c1.8,0,3.3-1.2,3.8-2.7
		c0.1-0.4,0.1-0.8,0.1-1.2V302.1z"/>
	<path id="XMLID_62_" class="st2" d="M219.7,312.6c-1.3,0.6-3.7,1.1-6.5,1.1c-7.6,0-12.4-4.6-12.4-12c0-6.9,4.7-12.5,13.4-12.5
		c1.9,0,4,0.3,5.6,0.9l-1.2,5.4c-0.9-0.4-2.2-0.7-4.1-0.7c-3.8,0-6.3,2.7-6.3,6.6c0,4.3,2.9,6.6,6.4,6.6c1.7,0,3.1-0.3,4.2-0.7
		L219.7,312.6z"/>
	<path id="XMLID_64_" class="st2" d="M231.1,299.6L231.1,299.6c0.6-1,1.2-1.9,1.8-2.8l4.8-7.1h8.8l-8.4,9.5l9.6,14h-9l-5.7-9.6
		l-1.9,2.3v7.3h-7.3v-34.1h7.3V299.6z"/>
</g>
</svg>
