<?xml version="1.0" encoding="utf-8"?>
<!-- Generator: Adobe Illustrator 19.0.0, SVG Export Plug-In . SVG Version: 6.00 Build 0)  -->
<svg version="1.1" xmlns="http://www.w3.org/2000/svg" xmlns:xlink="http://www.w3.org/1999/xlink" x="0px" y="0px"
	 viewBox="0 0 337.4 356.4" style="enable-background:new 0 0 337.4 356.4;" xml:space="preserve">
<style type="text/css">
	.st0{opacity:0.2;}
	.st1{opacity:0.2;enable-background:new    ;}
	.st2{fill:#583699;}
	.st3{fill:#FFFFFF;}
</style>
<g id="Layer_1">
	<polygon id="XMLID_2_" class="st0" points="336.7,60.4 276.4,60.4 276.4,0 	"/>
	<polygon id="XMLID_5_" class="st0" points="336.4,61.4 276.4,61.4 276.4,1 	"/>
	<polygon id="XMLID_28_" class="st1" points="337.4,64 277.3,64 277.3,4 	"/>
	<path id="XMLID_41_" class="st2" d="M277.5-0.3H78.6v357h259V59.9L277.5-0.3z"/>
	<polygon id="XMLID_4_" class="st1" points="336.7,59.7 276.6,59.7 276.6,-0.3 	"/>
	<path id="XMLID_1_" class="st3" d="M267.2,195.4h-26.8c-7.1,0-13.4,6.7-13.4,13.4h53.6C280.6,201.7,273.9,195.4,267.2,195.4z
		 M255.6,108.2c-35,0-43.8,6.7-48.9,11.7c-5-5-13.8-11.7-48.9-11.7s-51.8,9.6-51.8,16.4v122.9c6.1-3.4,25-10.1,44.9-11.7
		c24.1-1.9,49.1,1.9,49.1,6.7c0,3.4,1.7,6.5,6.5,6.7c0,0,0,0,0.2,0c0,0,0,0,0.2,0c4.8-0.2,6.5-3.4,6.5-6.7c0-4.8,25-8.6,49.1-6.7
		c19.7,1.5,38.8,8.4,44.9,11.7v-123C307.4,117.8,290.7,108.2,255.6,108.2z M200.1,228.1c-6.3-3.4-21.6-5.9-40.3-5.9
		s-35.7,2.5-40.3,5.7c0,0,0-86.2,0-92.9s13.4-12.4,40.3-12.4s40.3,5.7,40.3,12.4S200.1,228.1,200.1,228.1z M294,227.9
		c-4.6-3.1-21.6-5.7-40.3-5.7s-34,2.5-40.3,5.9c0,0,0-86.4,0-93.1s13.4-12.4,40.3-12.4S294,128.3,294,135S294,227.9,294,227.9z
		 M267.2,168.6h-26.8c-7.1,0-13.4,6.7-13.4,13.4h53.6C280.6,174.9,273.9,168.6,267.2,168.6z M267.2,141.7h-26.8
		c-7.1,0-13.4,6.7-13.4,13.4h53.6C280.6,148,273.9,141.7,267.2,141.7z M173.2,168.6h-26.8c-6.7,0-13.4,6.3-13.4,13.4h53.7
		C186.7,175.3,180.4,168.6,173.2,168.6z M173.2,195.4h-26.8c-6.7,0-13.4,6.3-13.4,13.4h53.7C186.7,202.1,180.4,195.4,173.2,195.4z
		 M173.2,141.7h-26.8c-6.7,0-13.4,6.3-13.4,13.4h53.7C186.7,148.4,180.4,141.7,173.2,141.7z"/>
	<g id="XMLID_39_">
		<path id="XMLID_40_" class="st3" d="M101.2,280.9c2.3-0.4,5.4-0.7,9.9-0.7s7.7,0.9,9.9,2.6c2.1,1.6,3.5,4.3,3.5,7.5
			s-1.1,5.9-3,7.7c-2.5,2.4-6.2,3.4-10.5,3.4c-1,0-1.8,0-2.5-0.1v11.6h-7.2L101.2,280.9L101.2,280.9z M108.5,295.6
			c0.6,0.1,1.4,0.2,2.4,0.2c3.9,0,6.3-2,6.3-5.3c0-3-2.1-4.8-5.7-4.8c-1.5,0-2.5,0.1-3,0.3C108.5,286,108.5,295.6,108.5,295.6z"/>
		<path id="XMLID_45_" class="st3" d="M141.4,312.9l-0.4-2.4h-0.1c-1.5,1.9-3.9,2.9-6.7,2.9c-4.8,0-7.6-3.5-7.6-7.2
			c0-6.1,5.5-9,13.8-9v-0.3c0-1.2-0.7-3-4.3-3c-2.4,0-4.9,0.8-6.5,1.8l-1.3-4.7c1.6-0.9,4.8-2.1,9.1-2.1c7.8,0,10.3,4.6,10.3,10.1
			v8.2c0,2.3,0.1,4.4,0.3,5.7H141.4z M140.5,301.8c-3.8,0-6.8,0.9-6.8,3.7c0,1.9,1.2,2.8,2.9,2.8c1.8,0,3.3-1.2,3.8-2.7
			c0.1-0.4,0.1-0.8,0.1-1.2V301.8z"/>
		<path id="XMLID_48_" class="st3" d="M153.4,297.3c0-3.1-0.1-5.7-0.2-7.9h6.3l0.3,3.3h0.1c1.7-2.5,4.4-3.8,7.8-3.8
			c5.1,0,9.7,4.5,9.7,12c0,8.5-5.4,12.6-10.7,12.6c-2.8,0-5-1.2-6.1-2.7h-0.1v11.7h-7.3v-25.2H153.4z M160.7,302.8
			c0,0.6,0,1.1,0.1,1.5c0.5,2,2.2,3.5,4.3,3.5c3.2,0,5-2.6,5-6.6c0-3.7-1.7-6.6-4.9-6.6c-2.1,0-3.9,1.5-4.4,3.7
			c-0.1,0.4-0.1,0.9-0.1,1.3V302.8z"/>
		<path id="XMLID_51_" class="st3" d="M187.8,303.5c0.2,3,3.2,4.5,6.6,4.5c2.5,0,4.5-0.3,6.5-1l1,4.9c-2.4,1-5.3,1.4-8.5,1.4
			c-8,0-12.5-4.6-12.5-12c0-6,3.7-12.5,11.9-12.5c7.6,0,10.5,5.9,10.5,11.7c0,1.2-0.1,2.4-0.2,2.9h-15.3V303.5z M196.4,298.5
			c0-1.8-0.8-4.8-4.1-4.8c-3.1,0-4.3,2.8-4.5,4.8H196.4z"/>
		<path id="XMLID_54_" class="st3" d="M207.6,297.1c0-3.5-0.1-5.7-0.2-7.7h6.3l0.2,4.3h0.2c1.2-3.4,4.1-4.8,6.3-4.8
			c0.7,0,1,0,1.5,0.1v6.9c-0.5-0.1-1.2-0.2-2-0.2c-2.7,0-4.5,1.4-5,3.7c-0.1,0.5-0.1,1.1-0.1,1.6v11.9h-7.2V297.1z"/>
		<path id="XMLID_56_" class="st3" d="M225.5,312.9c0.1-1.5,0.2-4.4,0.2-7v-27.1h7.3v13.4h0.1c1.4-2,3.8-3.3,7.1-3.3
			c5.6,0,9.7,4.7,9.7,11.9c0,8.4-5.4,12.7-10.8,12.7c-2.7,0-5.4-1-7.1-3.8h-0.1l-0.3,3.3h-6.1V312.9z M233,302.9
			c0,0.5,0,0.9,0.1,1.3c0.5,2,2.2,3.5,4.3,3.5c3.1,0,5-2.4,5-6.6c0-3.6-1.6-6.5-5-6.5c-2,0-3.8,1.5-4.3,3.6
			c-0.1,0.4-0.1,0.9-0.1,1.3V302.9z"/>
		<path id="XMLID_59_" class="st3" d="M267.7,312.9l-0.4-2.4h-0.1c-1.5,1.9-3.9,2.9-6.7,2.9c-4.8,0-7.6-3.5-7.6-7.2
			c0-6.1,5.5-9,13.8-9v-0.3c0-1.2-0.7-3-4.3-3c-2.4,0-4.9,0.8-6.5,1.8l-1.3-4.7c1.6-0.9,4.8-2.1,9.1-2.1c7.8,0,10.3,4.6,10.3,10.1
			v8.2c0,2.3,0.1,4.4,0.3,5.7H267.7z M266.8,301.8c-3.8,0-6.8,0.9-6.8,3.7c0,1.9,1.2,2.8,2.9,2.8c1.8,0,3.3-1.2,3.8-2.7
			c0.1-0.4,0.1-0.8,0.1-1.2V301.8z"/>
		<path id="XMLID_62_" class="st3" d="M297.3,312.3c-1.3,0.6-3.7,1.1-6.5,1.1c-7.6,0-12.4-4.6-12.4-12c0-6.9,4.7-12.5,13.4-12.5
			c1.9,0,4,0.3,5.6,0.9l-1.2,5.4c-0.9-0.4-2.2-0.7-4.1-0.7c-3.8,0-6.3,2.7-6.3,6.6c0,4.3,2.9,6.6,6.4,6.6c1.7,0,3.1-0.3,4.2-0.7
			L297.3,312.3z"/>
		<path id="XMLID_64_" class="st3" d="M308.7,299.3L308.7,299.3c0.6-1,1.2-1.9,1.8-2.8l4.8-7.1h8.8l-8.4,9.5l9.6,14h-9l-5.7-9.6
			l-1.9,2.3v7.3h-7.3v-34.1h7.3L308.7,299.3L308.7,299.3z"/>
	</g>
</g>
<g id="Layer_2">
	<g id="Layer_3">
	</g>
	<g id="Layer_4">
		<path id="XMLID_14_" d="M244.2,117.5h-226c-10,0-18.2-8.1-18.2-18.2V44.1C0,34.1,8.1,26,18.2,26h226c10,0,18.2,8.1,18.2,18.2v55.2
			C262.4,109.4,254.2,117.5,244.2,117.5z"/>
		<g id="XMLID_6_">
			<path id="XMLID_7_" class="st3" d="M83.5,68.6c0,15.9-9.6,25.6-23.8,25.6c-14.4,0-22.8-10.9-22.8-24.7c0-14.5,9.3-25.4,23.6-25.4
				C75.4,44.1,83.5,55.2,83.5,68.6z M48.5,69.3c0,9.5,4.5,16.2,11.8,16.2C67.7,85.5,72,78.4,72,69c0-8.7-4.2-16.2-11.7-16.2
				C52.8,52.8,48.5,59.9,48.5,69.3z"/>
			<path id="XMLID_10_" class="st3" d="M90.7,69.8c0-5.2-0.1-8.6-0.3-11.6h9.4l0.4,6.5h0.3c1.8-5.1,6.1-7.3,9.5-7.3
				c1,0,1.5,0,2.3,0.1v10.3c-0.8-0.1-1.7-0.3-3-0.3c-4,0-6.8,2.2-7.5,5.5c-0.1,0.7-0.2,1.6-0.2,2.4v17.9H90.7V69.8z"/>
			<path id="XMLID_17_" class="st3" d="M151.6,42.3v40.6c0,4,0.1,8.1,0.3,10.5h-9.7l-0.5-5.2h-0.1c-2.2,4-6.5,6-11,6
				c-8.4,0-15-7.1-15-18.1c-0.1-11.9,7.3-18.7,15.8-18.7c4.3,0,7.7,1.5,9.3,4h0.1V42.3H151.6z M140.6,73.1c0-0.6-0.1-1.4-0.1-1.9
				c-0.6-3-3-5.4-6.4-5.4c-5,0-7.6,4.5-7.6,10c0,6,3,9.7,7.5,9.7c3.2,0,5.7-2.2,6.3-5.3c0.2-0.8,0.3-1.6,0.3-2.5V73.1z"/>
			<path id="XMLID_24_" class="st3" d="M168.8,79.3c0.4,4.5,4.8,6.7,9.9,6.7c3.7,0,6.8-0.5,9.7-1.4l1.4,7.4c-3.6,1.4-8,2.2-12.7,2.2
				c-12,0-18.8-6.9-18.8-17.9c0-8.9,5.5-18.8,17.8-18.8c11.4,0,15.7,8.9,15.7,17.6c0,1.9-0.2,3.5-0.4,4.3H168.8z M181.7,71.8
				c0-2.7-1.2-7.1-6.2-7.1c-4.6,0-6.5,4.2-6.8,7.1H181.7z"/>
			<path id="XMLID_44_" class="st3" d="M198.4,69.8c0-5.2-0.1-8.6-0.3-11.6h9.4l0.4,6.5h0.3c1.8-5.1,6.1-7.3,9.5-7.3
				c1,0,1.5,0,2.3,0.1v10.3c-0.8-0.1-1.7-0.3-3-0.3c-4,0-6.8,2.2-7.5,5.5c-0.1,0.7-0.2,1.6-0.2,2.4v17.9h-10.9V69.8z"/>
		</g>
	</g>
</g>
</svg>
