<?xml version="1.0" encoding="utf-8"?>
<!-- Generator: Adobe Illustrator 19.0.0, SVG Export Plug-In . SVG Version: 6.00 Build 0)  -->
<svg version="1.1" id="Layer_1" xmlns="http://www.w3.org/2000/svg" xmlns:xlink="http://www.w3.org/1999/xlink" x="0px" y="0px"
	 viewBox="0 0 258.4 356.4" style="enable-background:new 0 0 258.4 356.4;" xml:space="preserve">
<style type="text/css">
	.st0{fill:#E34947;}
	.st1{fill:#FFFFFF;}
	.st2{opacity:0.2;}
</style>
<path id="XMLID_39_" class="st0" d="M198.2-0.6H0.4v357h259V60.2L198.2-0.6z"/>
<g id="XMLID_29_">
	<g id="XMLID_36_">
		<path id="path4463_1_" class="st1" d="M95.8,190.3c6-12.2,12.9-26,18.4-39.9l0,0l2.2-5.5c-7.2-28.2-11.5-50.9-7.6-65.5l0,0
			c1-3.8,5.3-6.1,9.9-6.1l0,0l2.8,0h0.5c6.3-0.1,9.2,8.1,9.5,11.3l0,0C132,90,129.6,99,129.6,99l0,0c0-3.6,0.1-9.5-2.1-14.6l0,0
			c-2.6-5.9-5.1-9.4-7.3-10l0,0c-1.1,0.8-2.2,2.4-2.6,5.5l0,0c-0.8,4.3-1,9.8-1,12.6l0,0c0,9.9,1.9,23,5.6,36.6l0,0
			c0.7-2.1,1.3-4.1,1.8-6l0,0c0.8-3,5.6-22.7,5.6-22.7l0,0c0,0-1.2,26.2-2.9,34.1l0,0c-0.4,1.7-0.8,3.3-1.2,5l0,0
			c6.1,17.7,16,33.5,27.8,44.9l0,0c4.6,4.5,10.5,8.1,16.1,11.4l0,0c12.1-1.8,23.3-2.6,32.6-2.5l0,0c12.4,0.2,21.4,2.1,25.1,5.8l0,0
			c1.8,1.8,2.5,4,2.8,6.5l0,0c0.1,1-0.4,3.2-0.5,3.8l0,0c0.1-0.7,0.1-4-9.8-7.3l0,0c-7.8-2.6-22.4-2.5-40-0.6l0,0
			c20.3,10.3,40,15.4,46.3,12.3l0,0c1.5-0.8,3.4-3.4,3.4-3.4l0,0c0,0-1.1,5.2-1.9,6.5l0,0c-1,1.4-3,2.9-4.9,3.5l0,0
			c-9.9,2.7-35.6-3.6-58.1-16.9l0,0c-25.1,3.8-52.6,10.9-74.7,18.4l0,0c-21.7,39.3-38,57.4-51.3,50.5l0,0l-4.9-2.5
			c-2-1.2-2.3-4-1.8-6.4l0,0c1.5-7.8,11-19.6,30.1-31.4l0,0c2-1.3,11.2-6.3,11.2-6.3l0,0c0,0-6.8,6.8-8.4,8.1l0,0
			c-15.2,12.9-26.4,29.1-26.2,35.4l0,0l0.1,0.5C51.5,267.9,70.9,240.7,95.8,190.3 M103.7,194.5c-4.2,8.1-8.2,15.6-12,22.5l0,0
			c20.8-9,43.1-14.8,64.4-18.9l0,0c-2.9-2-5.6-4.2-8.2-6.5l0,0c-11.7-10.3-20.7-23.1-27.1-36.6l0,0
			C116.6,166.5,111.7,178.7,103.7,194.5"/>
	</g>
	<path id="XMLID_30_" class="st1" d="M105.3,244.1h17.1c5.1,0,9,1.5,11.7,4.6c2.7,3.1,4.1,7.5,4.1,13.2c0,5.7-1.4,10.1-4.1,13.2
		c-2.7,3.1-6.6,4.6-11.7,4.6h-6.8v18.9h-10.3V244.1 M115.6,254.3v15.2h5.7c2,0,3.5-0.7,4.6-2c1.1-1.3,1.6-3.2,1.6-5.7
		c0-2.4-0.5-4.3-1.6-5.6c-1.1-1.3-2.6-2-4.6-2H115.6 M155.6,254.8v33.3h3.7c4.2,0,7.4-1.4,9.6-4.3c2.2-2.9,3.3-7,3.3-12.4
		c0-5.4-1.1-9.5-3.3-12.4c-2.2-2.8-5.4-4.2-9.6-4.2H155.6 M145.4,244.1h10.8c6.1,0,10.6,0.6,13.5,1.8c3,1.2,5.5,3.2,7.6,6
		c1.9,2.5,3.3,5.3,4.2,8.5c0.9,3.2,1.4,6.9,1.4,10.9c0,4.1-0.5,7.8-1.4,11c-0.9,3.2-2.3,6.1-4.2,8.5c-2.1,2.8-4.7,4.8-7.7,6
		c-3,1.2-7.5,1.8-13.5,1.8h-10.8V244.1 M190.7,244.1h27.7v10.6H201v10.2h16.4v10.6H201v23.1h-10.3V244.1"/>
</g>
<polygon id="XMLID_28_" class="st2" points="258.4,60.4 198.4,60.4 198.4,0 "/>
</svg>
