<?xml version="1.0" encoding="utf-8"?>
<!-- Generator: Adobe Illustrator 19.0.0, SVG Export Plug-In . SVG Version: 6.00 Build 0)  -->
<svg version="1.1" xmlns="http://www.w3.org/2000/svg" xmlns:xlink="http://www.w3.org/1999/xlink" x="0px" y="0px"
	 viewBox="0 0 337.4 356.4" style="enable-background:new 0 0 337.4 356.4;" xml:space="preserve">
<style type="text/css">
	.st0{opacity:0.2;}
	.st1{fill:#E34947;}
	.st2{fill:#FFFFFF;}
</style>
<g id="Layer_1">
	<polygon id="XMLID_2_" class="st0" points="336.7,60.4 276.4,60.4 276.4,0 	"/>
	<path id="XMLID_13_" class="st1" d="M276.2,0.4H78.4v357h259V61.2L276.2,0.4z"/>
	<g id="XMLID_3_">
		<g id="XMLID_4_">
			<path id="path4463_1_" class="st2" d="M173.3,194.1c6.7-13.1,14.3-27.8,20.3-42.6l0,0l2.4-5.8c-7.9-30.2-12.7-54.4-8.4-70.1l0,0
				c1.1-4.1,5.9-6.6,10.9-6.6l0,0l3.1,0h0.6c6.9-0.1,10.2,8.7,10.6,12.1l0,0c0.6,5.7-2,15.4-2,15.4l0,0c0-3.9,0.2-10.2-2.3-15.6l0,0
				c-2.9-6.3-5.6-10-8.1-10.6l0,0c-1.2,0.8-2.4,2.5-2.9,5.8l0,0c-0.9,4.6-1.1,10.5-1.1,13.5l0,0c0,10.6,2.1,24.6,6.2,39.1l0,0
				c0.8-2.2,1.5-4.4,2-6.4l0,0c0.8-3.2,6.2-24.2,6.2-24.2l0,0c0,0-1.4,28-3.2,36.5l0,0c-0.4,1.8-0.9,3.6-1.3,5.4l0,0
				c6.8,18.9,17.7,35.8,30.7,48l0,0c5.1,4.8,11.6,8.7,17.8,12.2l0,0c13.4-1.9,25.8-2.8,36.1-2.7l0,0c13.7,0.2,23.7,2.2,27.8,6.2l0,0
				c2,1.9,2.8,4.3,3,6.9l0,0c0.1,1-0.4,3.4-0.6,4l0,0c0.1-0.7,0.1-4.3-10.8-7.8l0,0c-8.6-2.8-24.8-2.7-44.2-0.6l0,0
				c22.4,11,44.3,16.4,51.3,13.2l0,0c1.7-0.8,3.7-3.6,3.7-3.6l0,0c0,0-1.2,5.5-2.1,6.9l0,0c-1.1,1.5-3.3,3.1-5.4,3.7l0,0
				c-10.9,2.9-39.4-3.8-64.3-18l0,0c-27.8,4.1-58.2,11.6-82.7,19.6l0,0c-24,42.1-42.1,61.4-56.7,54l0,0l-5.4-2.7
				c-2.2-1.3-2.5-4.3-2-6.8l0,0c1.7-8.4,12.2-21,33.3-33.6l0,0c2.3-1.4,12.4-6.7,12.4-6.7l0,0c0,0-7.5,7.2-9.2,8.7l0,0
				c-16.8,13.8-29.3,31.1-29,37.9l0,0l0.1,0.6C124.2,277.2,145.7,248.1,173.3,194.1 M182,198.6c-4.6,8.7-9.1,16.7-13.3,24.1l0,0
				c23-9.6,47.7-15.8,71.3-20.2l0,0c-3.2-2.2-6.2-4.5-9.1-6.9l0,0c-13-11-22.9-24.7-30-39.1l0,0C196.3,168.7,190.9,181.7,182,198.6"
				/>
		</g>
		<path id="XMLID_16_" class="st2" d="M194.3,256.6H210c4.7,0,8.3,1.4,10.8,4.1c2.5,2.7,3.8,6.6,3.8,11.7c0,5.1-1.3,9-3.8,11.8
			c-2.5,2.7-6.1,4.1-10.8,4.1h-6.2v16.9h-9.5V256.6 M203.8,265.7v13.6h5.2c1.8,0,3.3-0.6,4.3-1.8c1-1.2,1.5-2.9,1.5-5
			c0-2.2-0.5-3.8-1.5-5c-1-1.2-2.4-1.8-4.3-1.8H203.8 M240.7,266.1v29.7h3.4c3.9,0,6.8-1.3,8.9-3.8c2-2.5,3.1-6.2,3.1-11.1
			c0-4.8-1-8.5-3-11c-2-2.5-5-3.8-8.9-3.8H240.7 M231.2,256.6h10c5.6,0,9.7,0.5,12.5,1.6c2.7,1,5.1,2.8,7,5.3c1.7,2.2,3,4.7,3.8,7.6
			c0.8,2.9,1.3,6.1,1.3,9.7c0,3.7-0.4,7-1.3,9.8c-0.8,2.9-2.1,5.4-3.8,7.6c-2,2.5-4.3,4.3-7.1,5.4c-2.8,1-6.9,1.6-12.4,1.6h-10
			V256.6 M273,256.6h25.6v9.5h-16.1v9.1h15.1v9.5h-15.1v20.6H273V256.6"/>
	</g>
	<polygon id="XMLID_5_" class="st0" points="336.4,61.4 276.4,61.4 276.4,1 	"/>
</g>
<g id="Layer_2">
	<g id="Layer_3">
	</g>
	<g id="Layer_4">
		<path id="XMLID_14_" d="M244.2,117.5h-226c-10,0-18.2-8.1-18.2-18.2V44.1C0,34.1,8.1,26,18.2,26h226c10,0,18.2,8.1,18.2,18.2v55.2
			C262.4,109.4,254.2,117.5,244.2,117.5z"/>
	</g>
	<g id="XMLID_1_">
		<path id="XMLID_15_" class="st2" d="M16.3,81.2c3,1.5,7.5,3,12.2,3c5,0,7.7-2.1,7.7-5.3c0-3-2.3-4.8-8.1-6.8
			c-8.1-2.8-13.3-7.3-13.3-14.3c0-8.3,6.9-14.6,18.4-14.6c5.5,0,9.5,1.2,12.4,2.4L43,54.4c-1.9-0.9-5.4-2.3-10.2-2.3
			s-7.1,2.2-7.1,4.7c0,3.1,2.7,4.5,9,6.8c8.6,3.2,12.6,7.6,12.6,14.5c0,8.1-6.3,15-19.6,15c-5.5,0-11-1.4-13.8-3L16.3,81.2z"/>
		<path id="XMLID_18_" class="st2" d="M75,92.5l-0.6-3.5h-0.2c-2.3,2.8-5.9,4.3-10.1,4.3c-7.1,0-11.4-5.2-11.4-10.8
			c0-9.1,8.2-13.5,20.7-13.5v-0.5c0-1.9-1-4.5-6.4-4.5c-3.6,0-7.4,1.2-9.7,2.7l-2-7.1c2.4-1.4,7.3-3.1,13.7-3.1
			c11.7,0,15.5,6.9,15.5,15.2v12.2c0,3.4,0.1,6.6,0.5,8.6H75z M73.7,75.8c-5.8-0.1-10.2,1.3-10.2,5.5c0,2.8,1.9,4.2,4.3,4.2
			c2.7,0,5-1.8,5.7-4c0.1-0.6,0.2-1.2,0.2-1.9V75.8z"/>
		<path id="XMLID_21_" class="st2" d="M93,68.5c0-4.4-0.1-8.1-0.3-11.2h9.2l0.5,4.8h0.2c1.5-2.2,4.6-5.5,10.7-5.5
			c4.5,0,8.1,2.3,9.6,6h0.1c1.3-1.8,2.9-3.2,4.5-4.2c1.9-1.2,4.1-1.7,6.7-1.7c6.8,0,11.9,4.8,11.9,15.3v20.7h-10.7V73.3
			c0-5.1-1.7-8.1-5.2-8.1c-2.5,0-4.3,1.7-5,3.8c-0.3,0.8-0.4,1.9-0.4,2.8v20.6h-10.7V72.7c0-4.5-1.6-7.5-5-7.5c-2.8,0-4.5,2.2-5.1,4
			c-0.4,0.9-0.4,1.9-0.4,2.7v20.5H93V68.5z"/>
		<path id="XMLID_23_" class="st2" d="M154.9,69.1c0-4.6-0.1-8.6-0.3-11.8h9.5l0.5,4.9h0.1c2.6-3.7,6.6-5.7,11.7-5.7
			c7.7,0,14.6,6.7,14.6,17.9c0,12.8-8.1,18.9-16,18.9c-4.2,0-7.6-1.7-9.1-4h-0.1v17.5h-10.9V69.1z M165.9,77.3
			c0,0.9,0.1,1.7,0.2,2.3c0.7,3,3.2,5.2,6.4,5.2c4.8,0,7.6-4,7.6-9.9c0-5.6-2.5-9.9-7.4-9.9c-3.1,0-5.8,2.3-6.6,5.5
			c-0.1,0.6-0.2,1.3-0.2,1.9V77.3z"/>
		<path id="XMLID_26_" class="st2" d="M198,41.3h10.9v51.1H198V41.3z"/>
		<path id="XMLID_28_" class="st2" d="M226.2,78.4c0.4,4.5,4.8,6.7,9.9,6.7c3.7,0,6.8-0.5,9.7-1.4l1.4,7.4c-3.6,1.4-8,2.2-12.7,2.2
			c-12,0-18.8-6.9-18.8-17.9c0-8.9,5.5-18.8,17.8-18.8c11.4,0,15.7,8.9,15.7,17.6c0,1.9-0.2,3.5-0.4,4.3H226.2z M239.1,70.9
			c0-2.7-1.2-7.1-6.2-7.1c-4.6,0-6.5,4.2-6.8,7.1H239.1z"/>
	</g>
	<g id="XMLID_33_">
		<path id="XMLID_237_" class="st2" d="M120,36.3c1.7,1.6,4.3,1.6,6,0l14.2-13.5c0.9-0.9,1.2-2.2,0.7-3.3s-1.7-1.9-3-1.9H132v-7.4
			c0-1.7-1.5-3.1-3.2-3.1h-11.6c-1.8,0-3.2,1.4-3.2,3.1v7.4H108c-1.3,0-2.5,0.8-3,1.9c-0.5,1.1-0.2,2.5,0.7,3.3L120,36.3z"/>
		<path id="XMLID_236_" class="st2" d="M144.2,41.3c0-1.7-1.4-3-3.2-3h-36c-1.8,0-3.2,1.4-3.2,3v2.5c0,1.7,1.4,3,3.2,3h36
			c1.8,0,3.2-1.4,3.2-3L144.2,41.3L144.2,41.3z"/>
	</g>
</g>
</svg>
