<?xml version="1.0" encoding="utf-8"?>
<!-- Generator: Adobe Illustrator 19.0.0, SVG Export Plug-In . SVG Version: 6.00 Build 0)  -->
<svg version="1.1" xmlns="http://www.w3.org/2000/svg" xmlns:xlink="http://www.w3.org/1999/xlink" x="0px" y="0px"
	 viewBox="0 0 337.4 356.4" style="enable-background:new 0 0 337.4 356.4;" xml:space="preserve">
<style type="text/css">
	.st0{opacity:0.2;}
	.st1{fill:#E34947;}
	.st2{fill:#FFFFFF;}
</style>
<g id="Layer_1">
	<polygon id="XMLID_3_" class="st0" points="336.4,61.4 276.4,61.4 276.4,0 	"/>
	<path id="XMLID_13_" class="st1" d="M276.2-0.6H78.4v357h259V60.2L276.2-0.6z"/>
	<g id="XMLID_1_">
		<g id="XMLID_4_">
			<path id="path4463_1_" class="st2" d="M173.3,193.1c6.7-13.1,14.3-27.8,20.3-42.6l0,0l2.4-5.8c-7.9-30.2-12.7-54.4-8.4-70.1l0,0
				c1.1-4.1,5.9-6.6,10.9-6.6l0,0l3.1,0h0.6c6.9-0.1,10.2,8.7,10.6,12.1l0,0c0.6,5.7-2,15.4-2,15.4l0,0c0-3.9,0.2-10.2-2.3-15.6l0,0
				c-2.9-6.3-5.6-10-8.1-10.6l0,0c-1.2,0.8-2.4,2.5-2.9,5.8l0,0c-0.9,4.6-1.1,10.5-1.1,13.5l0,0c0,10.6,2.1,24.6,6.2,39.1l0,0
				c0.8-2.2,1.5-4.4,2-6.4l0,0c0.8-3.2,6.2-24.2,6.2-24.2l0,0c0,0-1.4,28-3.2,36.5l0,0c-0.4,1.8-0.9,3.6-1.3,5.4l0,0
				c6.8,18.9,17.7,35.8,30.7,48l0,0c5.1,4.8,11.6,8.7,17.8,12.2l0,0c13.4-1.9,25.8-2.8,36.1-2.7l0,0c13.7,0.2,23.7,2.2,27.8,6.2l0,0
				c2,1.9,2.8,4.3,3,6.9l0,0c0.1,1-0.4,3.4-0.6,4l0,0c0.1-0.7,0.1-4.3-10.8-7.8l0,0c-8.6-2.8-24.8-2.7-44.2-0.6l0,0
				c22.4,11,44.3,16.4,51.3,13.2l0,0c1.7-0.8,3.7-3.6,3.7-3.6l0,0c0,0-1.2,5.5-2.1,6.9l0,0c-1.1,1.5-3.3,3.1-5.4,3.7l0,0
				c-10.9,2.9-39.4-3.8-64.3-18l0,0c-27.8,4.1-58.2,11.6-82.7,19.6l0,0c-24,42.1-42.1,61.4-56.7,54l0,0l-5.4-2.7
				c-2.2-1.3-2.5-4.3-2-6.8l0,0c1.7-8.4,12.2-21,33.3-33.6l0,0c2.3-1.4,12.4-6.7,12.4-6.7l0,0c0,0-7.5,7.2-9.2,8.7l0,0
				c-16.8,13.8-29.3,31.1-29,37.9l0,0l0.1,0.6C124.2,276.2,145.7,247.1,173.3,193.1 M182,197.6c-4.6,8.7-9.1,16.7-13.3,24.1l0,0
				c23-9.6,47.7-15.8,71.3-20.2l0,0c-3.2-2.2-6.2-4.5-9.1-6.9l0,0c-13-11-22.9-24.7-30-39.1l0,0C196.3,167.7,190.9,180.7,182,197.6"
				/>
		</g>
		<path id="XMLID_16_" class="st2" d="M194.3,255.6H210c4.7,0,8.3,1.4,10.8,4.1c2.5,2.7,3.8,6.6,3.8,11.7c0,5.1-1.3,9-3.8,11.8
			c-2.5,2.7-6.1,4.1-10.8,4.1h-6.2v16.9h-9.5V255.6 M203.8,264.7v13.6h5.2c1.8,0,3.3-0.6,4.3-1.8c1-1.2,1.5-2.9,1.5-5
			c0-2.2-0.5-3.8-1.5-5c-1-1.2-2.4-1.8-4.3-1.8H203.8 M240.7,265.1v29.7h3.4c3.9,0,6.8-1.3,8.9-3.8c2-2.5,3.1-6.2,3.1-11.1
			c0-4.8-1-8.5-3-11c-2-2.5-5-3.8-8.9-3.8H240.7 M231.2,255.6h10c5.6,0,9.7,0.5,12.5,1.6c2.7,1,5.1,2.8,7,5.3c1.7,2.2,3,4.7,3.8,7.6
			c0.8,2.9,1.3,6.1,1.3,9.7c0,3.7-0.4,7-1.3,9.8c-0.8,2.9-2.1,5.4-3.8,7.6c-2,2.5-4.3,4.3-7.1,5.4c-2.8,1-6.9,1.6-12.4,1.6h-10
			V255.6 M273,255.6h25.6v9.5h-16.1v9.1h15.1v9.5h-15.1v20.6H273V255.6"/>
	</g>
	<polygon id="XMLID_5_" class="st0" points="336.4,60.4 276.4,60.4 276.4,0 	"/>
</g>
<g id="Layer_2">
	<g id="Layer_3">
	</g>
	<g id="Layer_4">
		<path id="XMLID_238_" d="M170.8,116.8H20.3C9.1,116.8,0,107.7,0,96.5V45.6c0-11.2,9.1-20.3,20.3-20.3h150.5
			c11.2,0,20.3,9.1,20.3,20.3v50.9C191.2,107.7,182.1,116.8,170.8,116.8z"/>
		<g id="XMLID_42_">
			<path id="XMLID_44_" class="st2" d="M117.3,35.2c1.7,1.6,4.3,1.6,6,0l14.2-13.5c0.9-0.9,1.2-2.2,0.7-3.3s-1.7-1.9-3-1.9h-5.9V9.1
				c0-1.7-1.5-3.1-3.2-3.1h-11.6c-1.8,0-3.2,1.4-3.2,3.1v7.4h-5.9c-1.3,0-2.5,0.8-3,1.9c-0.5,1.1-0.2,2.5,0.7,3.3L117.3,35.2z"/>
			<path id="XMLID_43_" class="st2" d="M141.5,40.2c0-1.7-1.4-3-3.2-3h-36c-1.8,0-3.2,1.4-3.2,3v2.5c0,1.7,1.4,3,3.2,3h36
				c1.8,0,3.2-1.4,3.2-3L141.5,40.2L141.5,40.2z"/>
		</g>
		<g id="XMLID_2_">
			<path id="XMLID_40_" class="st2" d="M37.7,51.2h30.8v8.4H49.1V70h18.1v8.4H49.1v18.3H37.7V51.2z"/>
			<path id="XMLID_38_" class="st2" d="M109.1,86.1c0,4.3,0.1,7.8,0.3,10.6h-9.9L99,92h-0.2c-1.4,2-4.9,5.4-11.4,5.4
				c-7.4,0-12.9-4.2-12.9-14.4V63.7h11.4v17.8c0,4.8,1.7,7.7,5.7,7.7c3.1,0,4.9-2,5.7-3.6c0.3-0.6,0.4-1.4,0.4-2.2V63.7h11.4V86.1z"
				/>
			<path id="XMLID_36_" class="st2" d="M118.2,48.7h11.4v48h-11.4V48.7z"/>
			<path id="XMLID_34_" class="st2" d="M138.8,48.7h11.4v48h-11.4V48.7z"/>
		</g>
	</g>
</g>
</svg>
