<?xml version="1.0" encoding="utf-8"?>
<!-- Generator: Adobe Illustrator 19.0.0, SVG Export Plug-In . SVG Version: 6.00 Build 0)  -->
<svg version="1.1" xmlns="http://www.w3.org/2000/svg" xmlns:xlink="http://www.w3.org/1999/xlink" x="0px" y="0px"
	 viewBox="0 0 259 356.4" style="enable-background:new 0 0 259 356.4;" xml:space="preserve">
<style type="text/css">
	.st0{fill:#424242;}
	.st1{opacity:0.2;}
	.st2{fill:#FFFFFF;}
</style>
<g id="Layer_1">
	<path id="XMLID_3_" class="st0" d="M198.2-0.6H0v357h259V60.2L198.2-0.6z"/>
	<polygon id="XMLID_2_" class="st1" points="258.4,60.4 198,60.4 198,0 	"/>
</g>
<g id="Layer_2">
	<g id="XMLID_113_">
		<path id="XMLID_114_" class="st2" d="M127.9,258.7h-12.5v-8.8h35.8v8.8h-12.7v37.7h-10.6V258.7z"/>
		<path id="XMLID_116_" class="st2" d="M182.6,296.4l-4.2-8.4c-1.7-3.2-2.8-5.7-4.1-8.4h-0.1c-1,2.7-2.1,5.1-3.6,8.4l-3.9,8.4h-12
			l13.5-23.6l-13-23h12.1l4.1,8.5c1.4,2.8,2.4,5.1,3.5,7.7h0.1c1.1-3,2-5,3.2-7.7l3.9-8.5h12L181,272.6l13.8,23.8H182.6z"/>
		<path id="XMLID_118_" class="st2" d="M209.9,258.7h-12.5v-8.8h35.8v8.8h-12.7v37.7h-10.6V258.7z"/>
	</g>
	<path id="XMLID_9_" class="st2" d="M140.4,118.5c-4.2-4-11.1-4-15.4,0l-3.8,3.6l-53.8,50.1l0,0l-1.7,1.6c0,0-5.4,5.1-17.6,41.7
		c-0.1,0.3-0.2,0.5-0.3,0.8c-0.2,0.7-0.4,1.3-0.7,2c-0.2,0.6-0.4,1.2-0.6,1.8c-0.2,0.5-0.3,1-0.5,1.6c-0.4,1.2-0.8,2.4-1.2,3.7
		c-0.9,2.8-3,9-0.6,11.3c2.3,2.2,9.1,0.3,12.1-0.6c1.3-0.4,2.6-0.7,3.9-1.1c0.6-0.2,1.2-0.3,1.7-0.5c0.6-0.2,1.2-0.4,1.8-0.5
		c0.8-0.2,1.5-0.4,2.3-0.6c0.2-0.1,0.4-0.1,0.7-0.2c37.5-10.9,44.2-15.9,44.7-16.4c0,0,0,0,0,0c0,0,0,0,0,0l1.7-1.6l0.1,0.1
		l53.8-50.1l0,0l3.8-3.6c4.2-3.9,4.2-10.4,0-14.3L140.4,118.5z M105.5,210.1c0,0-0.1,0.1-0.2,0.1c0,0-0.1,0-0.1,0.1
		c0,0-0.1,0.1-0.1,0.1c0,0-0.1,0.1-0.1,0.1c-1.8,1-7,3.6-19.8,7.9c-1.5,0.5-3.1,1-4.8,1.6L62.2,203c0.6-1.6,1.2-3.1,1.7-4.5
		c4.6-11.9,7.4-16.8,8.4-18.5c0,0,0-0.1,0.1-0.1c0-0.1,0.1-0.1,0.1-0.2c0,0,0.1-0.1,0.1-0.1c0-0.1,0.1-0.1,0.1-0.2l1.3-1.2
		l32.8,30.6L105.5,210.1z M201.8,118.5l-30.7-28.6c-4.2-3.9-11.1-3.9-15.4,0l-7.7,7.2c-4.2,3.9-4.2,10.4,0,14.3l30.7,28.6
		c4.2,3.9,11.1,3.9,15.4,0l7.7-7.2C206.1,128.8,206.1,122.4,201.8,118.5z"/>
</g>
</svg>
