<?xml version="1.0" encoding="utf-8"?>
<!-- Generator: Adobe Illustrator 19.0.0, SVG Export Plug-In . SVG Version: 6.00 Build 0)  -->
<svg version="1.1" xmlns="http://www.w3.org/2000/svg" xmlns:xlink="http://www.w3.org/1999/xlink" x="0px" y="0px"
	 viewBox="0 0 337.4 356.4" style="enable-background:new 0 0 337.4 356.4;" xml:space="preserve">
<style type="text/css">
	.st0{fill:#424242;}
	.st1{opacity:0.2;}
	.st2{fill:#FFFFFF;}
</style>
<g id="Layer_1">
	<path id="XMLID_4_" class="st0" d="M276.2,0.4H78.4v357h259V60.3L276.2,0.4z"/>
	<polygon id="XMLID_3_" class="st1" points="336.4,61.4 276.4,61.4 276.4,0 	"/>
	<g id="XMLID_10_">
		<path id="XMLID_11_" class="st2" d="M207.4,251.4h-12.9v-9.2h37v9.2h-13.1v39.1h-10.9V251.4z"/>
		<path id="XMLID_13_" class="st2" d="M263.8,290.4l-4.4-8.7c-1.8-3.4-2.9-5.9-4.3-8.7H255c-1,2.8-2.2,5.3-3.7,8.7l-4,8.7h-12.4
			l13.9-24.4l-13.4-23.8h12.5l4.2,8.8c1.4,2.9,2.5,5.3,3.6,8h0.1c1.1-3.1,2.1-5.2,3.3-8l4.1-8.8h12.4l-13.6,23.5l14.3,24.7H263.8z"
			/>
		<path id="XMLID_31_" class="st2" d="M291.9,251.4H279v-9.2h37v9.2h-13.1v39.1h-10.9V251.4z"/>
	</g>
	<path id="XMLID_9_" class="st2" d="M218.4,124.2c-4.2-4-11.1-4-15.4,0l-3.8,3.6l-53.8,50.2l0,0l-1.7,1.6c0,0-5.4,5.1-17.6,41.8
		c-0.1,0.3-0.2,0.5-0.3,0.8c-0.2,0.7-0.4,1.3-0.7,2c-0.2,0.6-0.4,1.2-0.6,1.8c-0.2,0.5-0.3,1-0.5,1.6c-0.4,1.2-0.8,2.4-1.2,3.7
		c-0.9,2.8-3,9-0.6,11.3c2.3,2.2,9.1,0.3,12.1-0.6c1.3-0.4,2.6-0.7,3.9-1.1c0.6-0.2,1.2-0.3,1.7-0.5c0.6-0.2,1.2-0.4,1.8-0.5
		c0.8-0.2,1.5-0.4,2.3-0.6c0.2-0.1,0.4-0.1,0.7-0.2c37.5-10.9,44.2-16,44.7-16.4c0,0,0,0,0,0c0,0,0,0,0,0l1.7-1.6l0.1,0.1l53.8-50.2
		l0,0l3.8-3.6c4.2-4,4.2-10.4,0-14.3L218.4,124.2z M183.5,215.9c0,0-0.1,0.1-0.2,0.1c0,0-0.1,0-0.1,0.1c0,0-0.1,0.1-0.1,0.1
		c0,0-0.1,0.1-0.1,0.1c-1.8,1-7,3.6-19.8,7.9c-1.5,0.5-3.1,1-4.8,1.6l-18.1-16.9c0.6-1.6,1.2-3.1,1.7-4.5
		c4.6-11.9,7.4-16.8,8.4-18.5c0,0,0-0.1,0.1-0.1c0-0.1,0.1-0.1,0.1-0.2c0,0,0.1-0.1,0.1-0.1c0-0.1,0.1-0.1,0.1-0.2l1.3-1.2
		l32.8,30.6L183.5,215.9z M279.8,124.2l-30.7-28.7c-4.2-4-11.1-4-15.4,0l-7.7,7.2c-4.2,4-4.2,10.4,0,14.3l30.7,28.7
		c4.2,4,11.1,4,15.4,0l7.7-7.2C284.1,134.6,284.1,128.1,279.8,124.2z"/>
</g>
<g id="Layer_2">
	<g id="Layer_3">
	</g>
	<g id="Layer_4">
		<path id="XMLID_238_" d="M170.8,116.8H20.3C9.1,116.8,0,107.7,0,96.5V45.6c0-11.2,9.1-20.3,20.3-20.3h150.5
			c11.2,0,20.3,9.1,20.3,20.3v50.9C191.2,107.7,182.1,116.8,170.8,116.8z"/>
		<g id="XMLID_42_">
			<path id="XMLID_44_" class="st2" d="M117.3,35.2c1.7,1.6,4.3,1.6,6,0l14.2-13.5c0.9-0.9,1.2-2.2,0.7-3.3s-1.7-1.9-3-1.9h-5.9V9.1
				c0-1.7-1.5-3.1-3.2-3.1h-11.6c-1.8,0-3.2,1.4-3.2,3.1v7.4h-5.9c-1.3,0-2.5,0.8-3,1.9c-0.5,1.1-0.2,2.5,0.7,3.3L117.3,35.2z"/>
			<path id="XMLID_43_" class="st2" d="M141.5,40.2c0-1.7-1.4-3-3.2-3h-36c-1.8,0-3.2,1.4-3.2,3v2.5c0,1.7,1.4,3,3.2,3h36
				c1.8,0,3.2-1.4,3.2-3L141.5,40.2L141.5,40.2z"/>
		</g>
		<g id="XMLID_2_">
			<path id="XMLID_40_" class="st2" d="M37.7,51.2h30.8v8.4H49.1V70h18.1v8.4H49.1v18.3H37.7V51.2z"/>
			<path id="XMLID_38_" class="st2" d="M109.1,86.1c0,4.3,0.1,7.8,0.3,10.6h-9.9L99,92h-0.2c-1.4,2-4.9,5.4-11.4,5.4
				c-7.4,0-12.9-4.2-12.9-14.4V63.7h11.4v17.8c0,4.8,1.7,7.7,5.7,7.7c3.1,0,4.9-2,5.7-3.6c0.3-0.6,0.4-1.4,0.4-2.2V63.7h11.4V86.1z"
				/>
			<path id="XMLID_36_" class="st2" d="M118.2,48.7h11.4v48h-11.4V48.7z"/>
			<path id="XMLID_34_" class="st2" d="M138.8,48.7h11.4v48h-11.4V48.7z"/>
		</g>
	</g>
</g>
</svg>
